<?xml version="1.0" standalone="no"?>
<!DOCTYPE svg PUBLIC "-//W3C//DTD SVG 20010904//EN"
 "http://www.w3.org/TR/2001/REC-SVG-20010904/DTD/svg10.dtd">
<svg version="1.0" xmlns="http://www.w3.org/2000/svg"
 width="1465.000000pt" height="1465.000000pt" viewBox="0 0 1465.000000 1465.000000"
 preserveAspectRatio="xMidYMid meet">
<metadata>
Created by potrace 1.14, written by Peter Selinger 2001-2017
</metadata>
<g transform="translate(0.000000,1465.000000) scale(0.100000,-0.100000)"
fill="#000000" stroke="none">
<path d="M7050 12660 c-1700 -104 -3037 -781 -4053 -2053 -607 -759 -969
-1591 -1096 -2517 -39 -283 -46 -408 -46 -770 0 -419 18 -638 81 -985 140
-783 468 -1530 962 -2191 238 -320 643 -752 912 -974 620 -513 1300 -854 2098
-1054 752 -189 1663 -246 2477 -155 1210 135 2223 611 3000 1410 779 802 1224
1858 1349 3199 8 85 17 220 21 300 3 80 8 182 11 228 l5 82 -2265 0 -2266 0 0
-580 0 -580 1595 0 1595 0 -5 -22 c-3 -13 -16 -77 -30 -143 -129 -612 -407
-1162 -806 -1590 -484 -521 -1126 -891 -1853 -1070 -407 -100 -720 -131 -1210
-122 -309 6 -394 12 -646 48 -989 141 -1839 574 -2540 1295 -409 421 -704 857
-915 1349 -344 805 -407 1795 -170 2636 192 679 581 1321 1102 1818 529 507
1227 899 1973 1111 891 252 1919 182 2893 -196 77 -30 143 -54 148 -54 5 0 87
43 182 95 94 52 180 95 191 95 15 0 17 5 12 31 -12 60 -100 253 -151 328 -81
121 -137 147 -295 138 -52 -3 -138 -17 -190 -30 -52 -14 -96 -24 -97 -23 -4 3
630 354 646 358 11 2 23 -65 56 -339 24 -188 46 -362 49 -388 l7 -46 35 22
c19 12 36 20 38 18 1 -2 15 -110 30 -239 38 -314 35 -300 61 -310 39 -15 246
-141 400 -243 283 -189 570 -415 836 -659 l120 -110 67 63 c37 35 244 232 461
438 l393 376 -45 40 c-574 513 -1078 883 -1584 1164 -61 34 -116 67 -121 74
-6 7 -12 26 -15 42 -4 29 -4 29 -5 -5 -1 -19 14 -159 33 -310 19 -151 35 -279
34 -285 0 -5 -16 33 -35 85 -73 201 -163 354 -236 406 -72 51 -213 53 -404 4
-43 -11 -79 -19 -80 -17 -2 1 87 52 196 112 110 61 199 112 200 115 0 3 -40
23 -88 44 -653 292 -1283 454 -2027 521 -202 19 -788 27 -995 15z"/>
<path d="M10431 12104 c0 -11 3 -14 6 -6 3 7 2 16 -1 19 -3 4 -6 -2 -5 -13z"/>
<path d="M10442 12040 c0 -19 2 -27 5 -17 2 9 2 25 0 35 -3 9 -5 1 -5 -18z"/>
<path d="M9410 11021 c-86 -16 -130 -32 -140 -50 -7 -14 -6 -22 5 -31 12 -10
38 -10 126 0 245 27 297 -6 432 -276 54 -108 80 -144 95 -130 19 20 -100 286
-172 383 -61 84 -105 106 -216 109 -47 2 -105 -1 -130 -5z"/>
<path d="M9932 10750 c0 -19 2 -27 5 -17 2 9 2 25 0 35 -3 9 -5 1 -5 -18z"/>
<path d="M9942 10670 c0 -19 2 -27 5 -17 2 9 2 25 0 35 -3 9 -5 1 -5 -18z"/>
</g>
</svg>
