<?xml version="1.0" standalone="no"?>
<!DOCTYPE svg PUBLIC "-//W3C//DTD SVG 20010904//EN"
 "http://www.w3.org/TR/2001/REC-SVG-20010904/DTD/svg10.dtd">
<svg version="1.0" xmlns="http://www.w3.org/2000/svg"
 width="1065.000000pt" height="1065.000000pt" viewBox="0 0 1065.000000 1065.000000"
 preserveAspectRatio="xMidYMid meet">
<metadata>
Created by potrace 1.14, written by Peter Selinger 2001-2017
</metadata>
<g transform="translate(0.000000,1065.000000) scale(0.100000,-0.100000)"
fill="#000000" stroke="none">
<path d="M5277 10544 c-1 -1 -63 -4 -137 -8 -157 -7 -245 -13 -315 -21 -27 -3
-72 -8 -100 -11 -27 -2 -61 -6 -75 -9 -14 -2 -54 -7 -90 -10 -36 -4 -74 -9
-85 -11 -11 -3 -35 -7 -54 -10 -18 -3 -43 -7 -54 -10 -12 -2 -37 -6 -57 -9
-43 -6 -44 -7 -195 -40 -66 -14 -131 -28 -145 -31 -14 -3 -56 -14 -95 -26 -38
-11 -74 -21 -80 -22 -5 -1 -19 -5 -30 -8 -11 -4 -67 -21 -125 -38 -104 -32
-373 -130 -460 -168 -205 -88 -451 -214 -618 -315 -157 -96 -433 -285 -462
-318 -3 -3 -23 -18 -45 -35 -22 -16 -45 -33 -51 -39 -6 -5 -25 -21 -43 -35
-35 -27 -60 -49 -177 -155 -87 -79 -356 -349 -393 -394 -13 -17 -29 -27 -34
-24 -6 3 -7 1 -4 -4 4 -6 -13 -32 -38 -58 -25 -25 -45 -51 -45 -56 0 -5 -7 -9
-15 -9 -8 0 -14 -3 -12 -8 4 -12 -90 -122 -98 -114 -5 4 -5 2 -2 -5 4 -6 1
-17 -6 -25 -22 -22 -119 -151 -124 -165 -3 -7 -9 -10 -14 -7 -5 3 -9 2 -8 -3
4 -16 -13 -43 -24 -36 -5 3 -7 1 -3 -5 3 -6 0 -16 -7 -24 -20 -21 -117 -170
-117 -181 0 -5 -7 -7 -14 -4 -10 4 -13 1 -10 -7 6 -17 -41 -88 -51 -78 -5 4
-5 1 -1 -6 7 -12 -24 -72 -51 -100 -7 -7 -13 -20 -13 -27 0 -7 -6 -20 -13 -27
-6 -7 -23 -35 -37 -63 -14 -27 -27 -52 -30 -55 -11 -11 -110 -221 -110 -234 0
-7 -6 -19 -14 -25 -8 -7 -18 -26 -21 -42 -4 -16 -11 -29 -16 -29 -6 0 -8 -4
-4 -10 3 -5 1 -17 -4 -27 -6 -10 -20 -40 -31 -68 -12 -27 -25 -59 -30 -70 -5
-11 -14 -39 -21 -62 -7 -24 -16 -43 -21 -43 -4 0 -7 -3 -6 -7 4 -15 -14 -73
-20 -69 -4 2 -8 -6 -9 -17 -3 -25 -7 -45 -16 -67 -7 -19 -31 -93 -32 -100 -5
-36 -40 -148 -45 -145 -4 3 -5 -7 -2 -20 2 -14 0 -25 -5 -25 -5 0 -9 -10 -10
-22 -2 -45 -7 -78 -13 -78 -3 0 -6 -8 -7 -17 -1 -10 -4 -27 -6 -38 -3 -11 -6
-30 -6 -43 -1 -13 -4 -21 -9 -18 -4 2 -7 -11 -6 -30 1 -19 -1 -34 -5 -34 -5 0
-7 -13 -11 -83 -1 -9 -5 -15 -9 -13 -5 3 -6 -6 -3 -19 2 -14 -1 -32 -8 -40 -9
-11 -9 -15 -1 -15 8 0 9 -6 3 -17 -5 -10 -7 -24 -4 -32 2 -8 1 -11 -4 -8 -5 3
-9 -11 -10 -31 0 -21 -4 -66 -8 -102 -5 -36 -8 -74 -7 -85 0 -11 -5 -23 -12
-27 -9 -6 -9 -8 0 -8 7 0 10 -10 7 -25 -2 -14 -6 -38 -8 -54 -2 -15 -6 -33
-10 -39 -3 -6 -2 -13 3 -16 11 -7 3 -44 -13 -65 -7 -10 -8 -13 0 -8 7 4 10
-11 10 -44 -1 -39 -4 -48 -16 -44 -10 3 -8 0 3 -9 16 -12 17 -18 7 -36 -9 -18
-9 -24 0 -30 7 -4 10 -12 6 -18 -6 -10 -12 -228 -6 -247 1 -5 1 -12 0 -15 -7
-18 -4 -60 5 -60 5 0 3 -5 -5 -10 -10 -6 -11 -10 -2 -10 6 0 12 -5 12 -11 0
-5 -4 -8 -8 -5 -5 3 -9 -1 -9 -9 0 -8 4 -12 9 -9 4 3 8 -2 8 -11 0 -10 -5 -13
-12 -9 -10 6 -10 5 -1 -7 10 -12 10 -18 0 -29 -6 -7 -7 -10 -1 -7 7 4 12 -12
13 -46 6 -106 10 -153 16 -180 4 -22 3 -27 -7 -21 -10 6 -10 5 -1 -7 6 -8 14
-37 16 -64 3 -28 8 -59 13 -69 6 -15 4 -17 -7 -11 -11 6 -12 5 -1 -6 6 -7 12
-27 12 -43 0 -17 4 -47 9 -66 5 -19 12 -54 15 -77 5 -37 4 -42 -11 -37 -11 3
-8 0 5 -8 18 -11 20 -16 10 -27 -10 -11 -10 -12 0 -7 8 5 12 -2 13 -23 1 -17
2 -39 2 -48 1 -10 5 -21 9 -24 5 -3 9 -26 10 -51 1 -26 6 -44 11 -41 5 3 7 -8
6 -25 -2 -16 3 -37 10 -46 11 -13 11 -19 1 -31 -10 -12 -9 -16 3 -21 9 -3 14
-14 12 -25 -2 -10 1 -19 7 -19 6 0 8 -9 5 -20 -3 -11 -1 -20 5 -20 5 0 6 -5 3
-10 -3 -5 -1 -10 6 -10 7 0 5 -9 -7 -22 -13 -15 -14 -18 -3 -10 14 10 18 10
23 -4 9 -25 7 -36 -6 -29 -7 4 -5 0 6 -9 10 -8 16 -22 13 -31 -4 -8 -2 -15 4
-15 6 0 8 -7 5 -16 -3 -8 -2 -12 4 -9 6 3 10 -1 10 -10 0 -10 -5 -14 -12 -10
-7 4 -6 1 3 -7 9 -7 14 -19 11 -27 -3 -8 0 -11 6 -7 6 4 11 -1 11 -11 -1 -10
6 -36 14 -58 11 -28 12 -44 5 -53 -8 -9 -7 -11 7 -6 15 6 17 3 13 -14 -4 -12
-2 -20 2 -17 11 7 32 -64 23 -78 -3 -6 -1 -7 4 -4 6 4 14 0 17 -9 4 -10 2 -13
-7 -8 -6 4 -4 -2 6 -14 11 -11 16 -25 13 -31 -3 -5 -2 -11 3 -13 4 -1 22 -36
39 -75 16 -40 25 -70 19 -67 -7 3 -5 -1 3 -8 24 -21 63 -105 54 -119 -4 -8 -3
-10 4 -5 12 7 16 -5 13 -33 -2 -7 2 -10 7 -7 12 7 36 -49 28 -63 -4 -5 2 -16
11 -23 10 -7 29 -35 42 -63 14 -27 32 -59 40 -70 15 -18 15 -19 -2 -6 -15 12
-17 12 -11 -3 3 -9 12 -16 18 -16 14 0 36 -41 36 -66 0 -9 5 -12 12 -8 7 4 8
3 4 -5 -4 -6 0 -14 8 -17 9 -3 16 -15 16 -25 0 -10 4 -19 9 -19 5 0 12 -7 15
-16 4 -10 2 -13 -7 -8 -6 4 0 -5 15 -21 16 -15 28 -34 28 -41 0 -8 4 -14 10
-14 5 0 14 -10 21 -21 6 -12 7 -19 2 -16 -5 4 -10 0 -10 -8 0 -9 7 -14 15 -13
8 2 17 -3 20 -11 3 -9 0 -11 -9 -6 -8 5 -11 4 -6 -1 5 -5 14 -9 20 -9 7 0 11
-8 11 -18 -1 -9 4 -17 12 -17 9 0 14 -11 14 -27 0 -19 3 -24 9 -15 6 10 11 5
21 -17 7 -17 16 -31 21 -31 5 0 9 -7 9 -15 0 -8 5 -15 12 -15 6 0 8 -3 5 -6
-3 -4 5 -16 19 -27 16 -12 24 -27 21 -38 -3 -11 0 -16 8 -13 7 3 15 -6 19 -22
4 -14 10 -24 13 -20 4 3 22 -15 40 -41 31 -43 32 -48 16 -55 -12 -6 -10 -7 8
-3 30 5 45 -15 26 -34 -9 -9 -8 -11 4 -6 12 4 26 -5 45 -32 16 -21 33 -41 39
-46 6 -4 5 -10 -3 -16 -11 -7 -10 -9 3 -14 9 -4 13 -3 10 3 -3 6 -1 10 4 10 6
0 11 -9 11 -21 0 -11 5 -17 10 -14 14 9 12 -8 -2 -25 -11 -12 -10 -12 6 0 16
13 20 12 32 -5 8 -11 24 -31 35 -43 11 -13 21 -32 22 -42 1 -10 5 -16 9 -14 5
3 5 11 1 17 -4 7 1 5 11 -3 17 -13 17 -15 -4 -32 -12 -10 -18 -18 -13 -18 5 0
14 5 20 11 9 9 19 5 42 -17 17 -16 31 -35 31 -42 0 -7 4 -10 10 -7 5 3 10 -1
10 -9 0 -9 4 -16 9 -16 5 0 27 -19 48 -41 21 -23 46 -50 57 -59 10 -10 15 -23
11 -29 -3 -6 -1 -11 5 -11 6 0 8 -5 4 -12 -4 -7 -3 -8 5 -4 6 4 9 12 6 17 -4
5 -1 9 4 9 6 0 11 -7 11 -15 0 -8 5 -15 10 -15 6 0 10 -7 10 -16 0 -8 4 -12
10 -9 5 3 10 2 10 -4 0 -5 9 -13 21 -16 12 -4 18 -12 15 -21 -3 -7 -2 -13 2
-11 11 3 52 -29 45 -36 -3 -4 0 -7 8 -7 8 0 31 -16 52 -36 28 -26 36 -39 28
-48 -8 -9 -7 -13 4 -13 8 0 11 5 8 10 -3 5 0 7 8 5 8 -3 12 -13 11 -23 -3 -17
-2 -17 14 -4 11 8 15 9 10 2 -4 -8 -2 -13 7 -13 19 0 48 -33 50 -57 0 -10 8
-20 16 -21 39 -4 50 -9 80 -35 29 -24 31 -32 8 -28 -5 1 -6 -3 -3 -8 3 -5 15
-7 26 -4 25 7 53 -15 45 -35 -4 -12 -3 -13 10 -2 17 14 21 0 4 -17 -8 -8 -5
-14 12 -23 22 -10 22 -10 6 3 -13 11 -15 17 -6 22 7 5 16 1 21 -9 5 -9 15 -13
21 -10 7 4 9 4 5 -1 -5 -5 2 -13 15 -20 12 -6 21 -17 19 -23 -1 -7 2 -12 8
-12 5 0 10 5 10 12 0 7 5 6 12 -3 7 -9 47 -38 88 -65 41 -27 77 -52 78 -56 2
-5 8 -8 14 -8 6 0 26 -11 43 -25 18 -13 35 -21 39 -18 3 4 6 1 6 -6 0 -7 5 -9
10 -6 6 3 13 -1 16 -9 3 -9 15 -16 25 -16 18 0 24 -11 20 -34 -1 -5 5 -4 13 4
18 14 22 0 6 -16 -7 -7 -6 -11 4 -11 8 0 13 4 10 8 -2 4 0 10 6 14 5 3 10 -1
10 -10 0 -12 5 -15 22 -9 21 6 22 5 8 -11 -12 -15 -12 -17 -1 -10 11 6 13 4 9
-7 -5 -11 0 -15 15 -14 15 1 21 -4 19 -14 -3 -12 0 -12 15 1 19 17 43 15 43
-3 0 -6 -8 -5 -17 3 -16 13 -17 12 -5 -3 8 -9 20 -14 29 -11 17 7 33 -13 28
-37 -2 -10 4 -16 17 -16 15 0 16 3 6 11 -7 5 -14 17 -16 25 -3 11 1 11 16 -3
10 -9 22 -14 25 -10 4 3 7 1 7 -6 0 -7 5 -9 13 -5 9 6 9 4 -1 -8 -10 -13 -10
-18 -1 -24 7 -4 9 -3 6 3 -11 17 20 23 33 8 7 -8 17 -12 22 -9 6 4 8 -3 4 -17
-6 -20 -5 -21 4 -7 10 16 13 16 51 -2 41 -17 62 -38 54 -50 -2 -4 2 -7 10 -7
11 0 12 4 3 14 -8 11 -7 12 6 7 9 -3 16 -10 16 -15 0 -5 5 -9 11 -9 5 0 7 6 3
13 -4 6 2 3 14 -7 12 -11 22 -15 22 -10 0 5 13 -4 28 -21 15 -16 38 -31 52
-33 21 -2 20 0 -9 13 -19 8 -31 18 -28 22 4 3 12 1 19 -4 7 -6 30 -16 50 -22
21 -7 38 -17 38 -23 0 -6 6 -8 14 -5 8 3 22 -1 33 -9 10 -9 13 -13 8 -10 -6 2
-17 0 -25 -5 -12 -7 -10 -8 7 -6 12 2 26 6 29 10 15 15 26 6 13 -10 -13 -15
-12 -15 10 -4 13 7 21 9 17 3 -3 -5 1 -13 10 -16 24 -9 31 -7 14 4 -9 6 -10
10 -3 10 6 0 15 -5 18 -10 4 -6 12 -8 18 -4 7 3 4 -1 -6 -9 -12 -10 -14 -17
-8 -22 6 -3 11 -2 11 3 0 19 34 23 46 7 9 -12 13 -13 17 -3 4 10 6 10 6 1 1
-7 9 -13 18 -13 27 0 83 -23 83 -35 0 -5 5 -3 10 5 7 12 10 12 10 1 0 -8 6
-11 16 -7 12 5 14 1 9 -17 -5 -19 -5 -20 5 -4 9 14 15 16 26 6 7 -6 11 -16 7
-22 -3 -6 -1 -7 6 -3 6 4 8 12 5 18 -4 6 -1 9 7 6 8 -3 13 -14 11 -24 -3 -18
-3 -18 11 1 15 20 15 20 38 0 14 -13 20 -15 15 -5 -4 8 -1 7 7 -3 10 -12 17
-14 22 -8 8 14 25 14 25 0 0 -5 -5 -7 -12 -3 -7 4 -8 3 -4 -5 5 -7 13 -8 23
-2 20 11 53 2 53 -14 0 -7 7 -16 16 -19 14 -5 15 -4 4 9 -7 9 -10 18 -6 22 3
3 6 1 6 -6 0 -6 6 -11 13 -10 27 3 47 -2 47 -12 0 -5 -4 -8 -9 -5 -5 3 -12 -1
-15 -10 -6 -15 -4 -15 19 0 24 16 81 13 70 -3 -2 -4 2 -8 10 -8 8 0 12 4 9 9
-3 4 0 8 5 8 6 0 11 -6 11 -14 0 -18 27 -29 36 -14 4 6 3 8 -4 4 -6 -3 -13 -2
-17 3 -3 6 4 8 17 5 13 -3 29 -6 36 -6 7 -1 10 -8 7 -16 -4 -11 -2 -12 7 -5
11 8 60 10 78 3 3 -1 9 -2 13 -1 5 1 6 -9 2 -21 -5 -18 -4 -20 4 -8 11 16 73
22 64 6 -4 -5 1 -7 11 -3 13 5 17 3 13 -5 -5 -15 41 -17 63 -3 8 5 20 -1 32
-16 13 -16 18 -18 14 -7 -4 15 0 17 27 14 18 -3 32 -5 32 -6 0 -4 44 -10 82
-12 28 -2 39 -6 33 -12 -6 -6 -10 -14 -10 -19 0 -5 7 -2 15 7 19 18 89 13 111
-9 9 -8 20 -15 27 -15 6 0 2 6 -8 14 -18 13 -17 14 8 14 15 0 30 -5 34 -11 4
-6 1 -7 -7 -2 -9 6 -11 4 -6 -4 5 -7 10 -10 13 -7 3 3 14 1 24 -5 14 -7 19 -7
17 3 -3 14 60 20 68 7 2 -5 -5 -6 -16 -4 -11 2 -20 0 -20 -4 0 -4 16 -8 35 -8
22 0 31 3 23 8 -8 5 0 8 19 6 27 -2 32 -5 27 -22 -4 -15 -3 -16 4 -6 6 8 18
11 28 7 18 -6 18 -6 0 8 -18 14 -18 15 3 13 18 -1 25 -13 23 -37 0 -3 8 -6 18
-6 11 0 17 2 15 5 -3 2 1 11 8 20 11 14 10 14 -6 2 -9 -8 -20 -11 -23 -8 -3 3
3 10 15 16 22 12 37 -1 25 -21 -4 -7 1 -6 12 3 12 10 32 15 54 13 19 -2 52 -4
72 -5 20 -1 35 -6 32 -11 -3 -4 0 -8 5 -8 6 0 11 5 11 10 0 6 5 10 11 10 5 0
7 -4 4 -10 -3 -5 -1 -10 4 -10 6 0 11 6 11 13 0 8 3 7 9 -3 6 -8 7 -18 5 -22
-3 -4 -1 -8 4 -8 6 0 13 7 16 16 3 8 2 12 -4 9 -6 -3 -10 -2 -10 4 0 5 9 9 20
8 15 -1 18 -6 14 -20 -4 -13 -2 -17 5 -13 6 4 11 13 11 19 0 7 9 13 20 14 11
1 20 -3 20 -8 0 -6 -4 -8 -9 -5 -5 3 -11 0 -14 -7 -3 -8 1 -14 9 -14 7 0 16 8
19 17 3 9 16 16 29 16 14 0 22 -4 20 -8 -3 -5 -9 -6 -14 -3 -5 3 -11 1 -15 -4
-8 -14 33 -5 53 11 13 11 15 10 9 -4 -3 -10 -2 -18 2 -18 5 0 11 5 13 12 2 6
12 12 21 14 9 1 15 -2 11 -7 -3 -5 -10 -6 -16 -3 -7 4 -8 2 -4 -4 4 -6 14 -8
23 -5 13 5 15 2 9 -13 -4 -12 2 -8 17 10 16 20 26 25 31 18 4 -7 2 -12 -3 -12
-6 0 -11 -4 -11 -10 0 -18 18 -10 25 10 4 11 11 18 16 14 6 -3 5 -12 -3 -22
-12 -16 -11 -16 7 -2 11 8 23 20 27 25 7 9 12 -7 9 -27 -2 -16 18 -7 23 10 5
14 18 17 80 18 63 0 73 -2 69 -15 -4 -11 -1 -10 9 3 8 10 21 17 29 14 8 -3 24
-1 37 3 17 7 24 5 29 -6 5 -13 7 -13 19 2 13 17 14 17 7 -1 -4 -13 -3 -17 4
-13 6 4 14 1 17 -5 3 -7 4 -4 1 8 -5 18 0 20 35 21 22 0 44 -5 51 -13 15 -18
25 -18 33 2 5 14 4 15 -8 5 -10 -9 -15 -9 -19 1 -3 9 5 13 24 13 32 1 35 -4
17 -24 -11 -11 -9 -11 9 0 12 7 20 16 17 20 -2 4 8 5 23 3 16 -2 37 -5 48 -7
11 -1 23 -9 26 -16 4 -11 7 -9 11 6 5 17 2 21 -13 18 -11 -2 -19 0 -19 5 0 4
23 6 50 4 34 -2 50 1 50 9 0 8 3 9 8 1 4 -6 16 -14 27 -17 18 -7 19 -6 3 6
-16 13 -15 14 10 15 15 1 36 4 47 6 11 2 30 -2 42 -10 19 -12 22 -12 28 5 3 9
11 18 18 18 6 0 24 3 40 6 16 3 25 2 22 -4 -4 -5 -10 -7 -14 -5 -4 3 -8 -1 -8
-9 0 -12 3 -12 16 -2 9 6 19 16 23 21 10 15 48 14 48 -1 0 -11 -5 -11 -22 -3
-22 11 -22 10 -4 -4 21 -17 36 -13 36 10 0 8 9 14 21 14 11 0 30 5 41 11 15 8
19 8 14 0 -4 -6 -2 -11 3 -11 6 0 11 4 11 8 0 4 10 8 23 9 19 2 20 1 5 -8 -10
-6 -18 -15 -18 -20 0 -6 7 -4 15 5 8 8 24 13 35 11 12 -2 18 0 15 6 -4 5 -11
7 -16 4 -5 -4 -9 -1 -9 5 0 7 7 9 16 6 8 -3 25 -1 36 5 18 10 19 8 13 -11 -5
-15 -4 -20 4 -16 6 4 11 17 11 29 0 18 2 19 10 7 5 -8 10 -10 10 -4 0 6 6 11
13 12 6 0 26 4 42 7 33 8 37 8 76 2 15 -2 26 1 25 7 0 6 4 13 9 14 6 2 18 8
28 13 11 6 17 6 17 -1 0 -5 5 -10 11 -10 5 0 7 5 3 12 -4 7 -3 8 4 4 7 -4 12
-2 12 5 0 9 3 9 14 0 11 -9 20 -10 36 -1 16 9 25 8 36 -1 8 -7 14 -8 13 -3 -1
5 -1 16 0 25 1 15 6 17 56 20 14 1 25 6 25 11 0 5 5 6 10 3 6 -3 10 -1 10 4 0
6 4 11 10 11 5 0 6 -8 3 -17 -5 -12 -1 -11 15 5 12 12 25 22 30 23 23 2 45 9
72 22 17 9 28 11 25 6 -9 -14 7 -11 25 6 10 9 26 17 36 19 11 3 33 9 49 16 17
6 31 11 32 11 2 0 23 8 47 19 24 10 47 16 50 12 4 -3 17 -7 29 -9 17 -2 19 -1
7 6 -8 5 -18 7 -22 5 -4 -3 -8 -1 -8 4 0 6 8 13 18 17 27 13 43 14 36 4 -3 -5
-10 -7 -15 -4 -5 4 -9 2 -9 -3 0 -6 7 -13 16 -16 8 -3 13 -2 10 2 -2 4 2 16
10 27 8 10 14 15 14 10 0 -4 9 0 20 10 11 10 20 13 20 7 0 -7 -6 -12 -12 -12
-9 0 -8 -3 2 -9 19 -13 29 -5 23 19 -4 15 0 20 14 20 10 0 25 -6 32 -12 11
-11 11 -9 1 11 -6 13 -8 21 -3 18 5 -3 23 2 40 12 20 13 35 16 46 10 10 -6 18
-5 23 2 4 7 3 9 -4 5 -6 -3 -13 -2 -16 3 -3 5 2 11 12 13 9 3 22 6 27 8 6 1
23 12 39 23 16 12 26 16 22 9 -4 -7 -2 -12 3 -12 6 0 11 6 11 14 0 8 7 17 16
20 15 6 15 4 3 -11 -12 -16 -12 -17 2 -6 9 7 19 10 23 6 4 -4 4 1 0 12 -7 18
-6 18 9 6 10 -8 20 -11 24 -7 3 3 1 6 -5 6 -7 0 -12 5 -12 11 0 6 7 8 16 5 8
-3 13 -2 10 2 -3 4 4 14 16 21 16 10 19 10 13 -1 -5 -7 2 -3 15 10 12 13 28
21 36 18 8 -3 14 1 14 10 0 11 6 15 20 11 11 -3 18 -1 14 4 -3 5 0 9 6 9 6 0
8 4 5 10 -3 5 -2 10 3 10 17 0 22 -13 10 -29 -8 -10 -4 -9 10 3 23 20 30 32
12 21 -5 -3 -10 -2 -10 3 0 17 13 22 27 10 10 -8 12 -8 8 3 -6 16 109 94 137
92 10 0 14 5 11 13 -4 10 0 12 13 8 11 -4 16 -4 12 1 -10 11 49 57 76 59 17 1
21 4 15 12 -10 13 16 29 40 25 7 -1 10 2 6 8 -3 6 1 11 9 11 9 0 15 6 14 13
-2 7 5 11 16 9 11 -2 15 1 11 7 -3 6 1 11 10 11 10 0 13 -5 9 -12 -4 -7 -3 -8
5 -4 9 6 9 11 -1 24 -8 9 -8 13 -2 9 7 -4 14 0 18 8 3 8 15 14 27 12 12 -1 24
4 26 11 3 6 0 12 -7 12 -6 0 -8 -4 -5 -10 3 -5 1 -10 -4 -10 -6 0 -11 3 -11 8
0 10 76 72 89 72 6 0 11 5 11 10 0 6 5 10 11 10 5 0 7 -4 4 -10 -3 -5 -1 -10
5 -10 7 0 9 8 5 21 -4 13 -3 19 2 16 6 -4 16 5 23 18 10 19 17 22 31 15 12 -7
20 -6 25 2 4 6 3 8 -4 4 -6 -3 -13 -2 -16 3 -9 15 13 24 28 12 9 -8 13 -7 13
4 0 8 -4 12 -9 9 -20 -12 -5 10 24 37 18 16 39 27 47 24 11 -4 12 -3 1 10 -10
12 -10 15 3 15 8 0 17 7 21 15 3 8 12 15 21 15 8 0 14 3 13 8 -6 16 42 64 57
58 10 -3 13 -11 9 -18 -4 -7 -3 -9 1 -5 12 10 15 38 4 31 -5 -3 -9 -2 -9 3 1
14 77 93 91 93 7 0 10 3 6 6 -6 6 12 31 61 81 17 19 32 36 32 39 0 8 27 34 35
34 3 0 3 -5 -1 -12 -4 -7 -3 -8 4 -4 6 4 9 12 6 19 -2 7 7 24 21 39 14 15 25
32 25 39 0 6 7 9 14 6 10 -4 13 -1 9 9 -3 7 -1 14 3 14 5 0 22 20 37 45 16 25
33 42 38 39 5 -3 9 -2 8 3 -3 19 2 27 10 15 7 -11 9 -10 14 3 4 9 3 13 -3 10
-14 -9 -12 19 2 33 14 14 32 16 24 4 -3 -5 1 -9 9 -9 13 0 12 4 -2 19 -15 17
-15 18 0 19 30 2 35 4 43 11 3 4 -3 6 -15 3 -23 -4 -29 12 -7 21 8 3 16 15 19
26 3 11 10 17 16 13 7 -3 8 0 5 9 -3 9 -1 16 6 16 6 0 8 5 4 12 -5 7 -2 9 8 5
12 -4 14 0 10 16 -5 20 -4 21 13 7 17 -14 18 -14 7 7 -10 19 -9 24 5 32 10 5
22 9 26 9 5 0 11 3 14 6 3 3 -4 3 -17 1 -18 -3 -20 -2 -10 10 7 8 16 13 20 10
4 -2 7 5 6 18 0 12 4 21 11 20 6 -1 14 4 17 13 4 9 2 12 -5 8 -6 -3 -3 8 6 26
11 22 21 30 32 26 13 -5 14 -4 4 8 -10 12 -9 17 7 25 11 6 23 7 27 3 5 -4 5
-1 1 6 -4 7 -12 9 -18 6 -6 -4 -8 -1 -6 7 3 8 11 13 17 11 7 -1 10 1 8 5 -8
13 12 55 23 48 6 -3 7 1 4 10 -4 9 1 22 12 31 11 9 14 13 7 10 -13 -7 25 76
39 85 5 3 9 10 8 15 -2 16 33 84 40 79 5 -3 6 3 3 13 -2 11 2 26 11 34 8 9 12
18 9 22 -3 3 1 8 9 11 9 4 14 14 11 25 -3 10 1 21 8 25 8 6 10 4 4 -6 -7 -12
-6 -12 6 0 10 10 11 15 2 18 -17 6 -4 33 16 34 9 0 11 3 5 5 -17 7 -5 44 15
45 9 0 11 3 4 5 -12 5 -11 8 18 79 14 34 79 222 79 228 0 3 5 18 12 34 6 15
13 39 15 53 2 13 9 30 15 37 6 7 7 13 2 13 -4 0 3 12 17 27 16 18 17 22 5 13
-18 -14 -19 -13 -13 3 4 10 7 23 7 28 0 6 3 8 8 6 4 -3 8 12 8 33 1 22 9 53
17 70 9 16 11 28 6 25 -5 -3 -6 1 -3 9 3 9 10 14 14 11 5 -3 6 4 3 15 -3 11
-2 28 2 37 5 10 7 24 6 32 -1 8 2 10 10 5 8 -5 10 -3 4 6 -4 7 -2 16 6 21 10
6 11 9 2 9 -7 0 -13 5 -13 11 0 5 4 8 9 5 4 -3 7 8 5 24 -2 20 2 33 14 39 12
7 13 10 3 11 -11 0 -11 3 0 17 12 14 12 16 0 8 -11 -6 -12 -5 -5 6 4 8 9 19
10 24 1 6 3 21 5 35 2 14 9 28 14 32 6 5 5 8 -2 8 -9 0 -10 7 -4 23 9 24 22
98 24 135 1 12 5 22 10 22 4 0 5 5 2 10 -4 6 -2 17 5 25 7 8 7 15 1 19 -14 9
-2 37 13 29 8 -4 8 -3 1 5 -6 7 -9 30 -7 53 3 28 7 37 13 28 6 -9 9 -10 9 -2
0 6 -5 15 -10 18 -6 4 -7 12 -3 18 7 12 10 35 12 110 1 28 4 36 14 31 8 -5 8
-2 -2 9 -10 13 -10 17 -1 17 10 0 10 3 0 15 -8 9 -9 15 -2 15 6 0 9 10 7 22
-3 12 0 27 6 34 7 8 7 14 -1 19 -6 3 -7 11 -4 17 4 6 7 31 7 57 0 25 4 52 9
58 7 9 7 13 0 13 -6 0 -9 6 -7 13 3 6 7 42 9 78 2 37 7 73 11 80 5 6 4 10 -1
6 -5 -3 -9 46 -9 116 l0 121 -2186 1 -2185 0 1 -33 c1 -18 -2 -35 -7 -38 -4
-3 -5 -11 -1 -17 12 -20 12 -41 0 -56 -7 -9 -8 -12 -1 -8 8 4 10 -12 9 -51 -1
-40 -5 -56 -14 -54 -7 1 -10 -2 -6 -8 3 -6 9 -8 13 -6 10 6 8 -177 -2 -193 -6
-9 -5 -12 1 -8 6 4 9 -15 8 -51 -1 -40 -5 -56 -14 -54 -7 1 -10 -2 -6 -8 3 -6
9 -8 13 -6 10 6 8 -177 -2 -193 -6 -9 -5 -12 1 -8 6 4 9 -15 8 -51 -1 -40 -5
-56 -14 -54 -7 1 -10 -2 -6 -8 3 -6 10 -8 14 -6 3 3 6 -40 6 -94 0 -54 2 -105
5 -112 6 -16 72 -19 82 -4 5 7 8 8 8 1 0 -7 37 -10 99 -10 55 1 98 -2 96 -6
-3 -4 2 -12 11 -19 12 -10 17 -11 27 -1 9 10 8 11 -4 6 -10 -4 -20 -2 -24 4
-7 13 -9 13 122 16 73 1 100 -1 96 -9 -4 -6 2 -4 12 4 11 9 16 10 11 3 -7 -14
-4 -15 42 -17 16 0 37 -8 48 -16 18 -14 18 -14 1 6 -12 15 -27 21 -47 19 -17
-1 -30 2 -30 7 0 6 7 8 15 5 8 -4 17 -2 21 4 3 6 11 6 17 1 7 -4 47 -8 89 -7
42 0 75 -2 72 -6 -2 -4 0 -10 6 -14 6 -4 7 -11 4 -17 -4 -6 2 -6 15 1 24 13
29 23 7 15 -8 -3 -17 -1 -21 5 -3 6 0 11 7 12 7 0 34 2 60 4 26 1 45 -1 43 -5
-3 -4 2 -13 11 -20 12 -10 17 -11 27 -1 9 10 8 11 -4 6 -10 -4 -20 -2 -24 4
-3 6 0 11 7 12 7 0 32 2 55 3 29 2 40 0 36 -8 -4 -6 2 -4 12 4 11 9 16 10 11
3 -7 -14 -4 -15 42 -17 16 0 37 -8 48 -16 18 -14 18 -14 1 6 -12 15 -27 21
-47 19 -17 -1 -30 1 -30 6 0 5 11 7 25 5 15 -3 25 0 25 7 0 8 3 8 8 2 4 -6 42
-10 84 -10 42 1 75 -2 72 -6 -2 -4 3 -12 12 -19 12 -10 17 -11 27 -1 9 10 8
11 -4 6 -10 -4 -20 -2 -24 4 -7 13 -7 13 111 15 69 2 91 -1 91 -11 0 -16 -9
-17 -27 0 -12 10 -12 9 -1 -6 15 -20 36 -18 36 3 0 7 6 15 14 18 8 3 11 0 8
-6 -4 -5 0 -15 9 -22 12 -10 17 -11 27 -1 9 10 8 11 -4 6 -10 -4 -20 -2 -24 4
-6 11 7 14 60 13 16 -1 35 4 42 10 13 10 14 9 17 -11 0 -5 5 -13 9 -18 5 -4 7
-2 5 6 -2 7 3 16 11 19 8 2 11 0 8 -6 -4 -5 0 -15 9 -22 12 -10 17 -11 27 -1
9 10 8 11 -4 6 -10 -4 -20 -2 -24 4 -3 6 0 11 7 12 7 0 21 2 31 4 12 2 17 -1
14 -9 -3 -7 1 -13 9 -13 9 0 13 6 10 14 -3 8 -2 12 3 8 5 -3 11 -2 14 2 2 5 2
2 0 -5 -1 -7 2 -10 7 -7 18 11 62 16 56 6 -3 -5 1 -14 10 -21 12 -10 17 -11
27 -1 9 10 8 11 -4 6 -10 -4 -20 -2 -24 4 -6 11 7 14 60 13 16 -1 35 4 42 10
13 10 14 9 17 -11 0 -5 5 -13 9 -18 5 -4 7 -2 5 6 -2 7 3 16 11 19 8 2 11 0 8
-6 -4 -5 0 -15 9 -22 12 -10 17 -11 27 -1 9 10 8 11 -4 6 -10 -4 -20 -2 -24 4
-3 6 0 11 7 12 7 0 21 2 31 4 12 2 17 -1 14 -9 -3 -7 1 -13 9 -13 9 0 13 6 10
14 -3 8 -2 12 3 8 5 -3 11 -2 14 2 2 5 2 2 0 -5 -1 -7 2 -10 7 -7 18 11 62 16
56 6 -3 -5 1 -14 10 -21 12 -10 17 -11 27 -1 9 10 8 11 -4 6 -10 -4 -20 -2
-24 4 -6 11 7 14 60 13 16 -1 35 4 42 10 13 10 14 9 17 -11 0 -5 5 -13 9 -18
5 -4 7 -2 5 6 -2 7 3 16 11 19 8 2 11 0 8 -6 -4 -5 0 -15 9 -22 12 -10 17 -11
27 -1 9 10 8 11 -4 6 -10 -4 -20 -2 -24 4 -3 6 0 11 7 12 7 0 21 2 31 4 12 2
17 -1 14 -9 -3 -7 1 -13 9 -13 9 0 13 6 10 14 -3 8 -2 12 3 8 5 -3 11 -2 14 2
2 5 2 2 0 -5 -1 -7 2 -10 7 -7 18 11 62 16 56 6 -3 -5 1 -14 10 -21 12 -10 17
-11 27 -1 9 10 8 11 -4 6 -10 -4 -20 -2 -24 4 -6 11 7 14 60 13 16 -1 35 4 42
10 13 10 14 9 17 -11 0 -5 5 -13 9 -18 5 -4 7 -2 5 6 -1 7 3 16 11 19 8 2 11
0 8 -6 -4 -5 0 -15 9 -22 12 -10 17 -11 27 -1 9 10 8 11 -4 6 -10 -4 -20 -2
-24 4 -3 6 0 11 7 12 7 0 21 2 31 4 12 2 17 -1 14 -9 -3 -7 1 -13 9 -13 9 0
13 6 10 14 -3 8 -2 12 3 8 5 -3 11 -2 14 2 2 5 3 3 1 -2 -1 -6 6 -11 16 -11
10 0 16 4 14 8 -3 4 6 7 20 6 13 -1 22 -6 20 -10 -3 -5 -10 -5 -16 -2 -6 4 -8
3 -5 -3 7 -11 43 -10 54 2 5 4 2 5 -4 1 -7 -4 -13 -2 -13 4 0 7 7 10 15 7 8
-4 17 -2 20 4 4 5 12 6 18 2 16 -10 37 -10 63 -1 12 4 25 4 29 0 3 -3 18 -7
33 -7 15 0 33 -5 41 -9 9 -6 12 -5 7 2 -3 6 -1 14 5 18 8 5 9 3 5 -5 -5 -8 -3
-12 5 -10 35 4 42 0 28 -18 -10 -11 -10 -14 -1 -9 6 4 12 2 12 -3 0 -6 -4 -11
-10 -11 -5 0 -6 -7 -3 -17 4 -11 3 -14 -5 -9 -8 5 -10 2 -6 -9 8 -19 -16 -146
-26 -140 -4 2 -5 -7 -2 -22 3 -15 1 -24 -5 -20 -5 4 -8 -7 -5 -25 3 -21 1 -29
-7 -24 -6 4 -9 2 -5 -7 2 -7 -2 -34 -10 -58 -8 -24 -20 -63 -26 -87 -6 -23
-14 -41 -18 -38 -4 2 -7 -8 -6 -22 1 -31 -5 -54 -15 -48 -3 2 -7 -9 -8 -25 -1
-16 -9 -44 -17 -62 -15 -35 -29 -69 -30 -77 -1 -3 -8 -21 -17 -40 -9 -19 -23
-50 -30 -68 -8 -17 -18 -32 -22 -32 -5 0 -6 -4 -3 -9 9 -14 -5 -42 -17 -34 -5
3 -7 2 -4 -3 9 -16 -51 -136 -65 -128 -6 4 -8 3 -4 -4 8 -14 -14 -63 -26 -56
-5 3 -7 2 -6 -3 4 -13 -23 -73 -34 -73 -5 0 -7 -4 -4 -8 3 -5 -4 -18 -14 -30
-11 -12 -20 -23 -20 -26 0 -13 -53 -81 -62 -78 -5 1 -7 -2 -3 -8 5 -8 -53 -97
-89 -136 -6 -7 -20 -24 -30 -39 -11 -14 -28 -36 -39 -48 -124 -145 -232 -257
-246 -257 -6 0 -10 -4 -9 -8 3 -9 -26 -37 -105 -105 -28 -23 -55 -46 -61 -52
-6 -5 -29 -23 -50 -40 -22 -16 -62 -48 -90 -69 -51 -40 -247 -171 -321 -215
-88 -53 -268 -147 -351 -184 -95 -42 -139 -61 -144 -62 -3 -1 -14 -5 -25 -10
-92 -38 -296 -106 -405 -135 -127 -34 -322 -76 -395 -85 -22 -3 -51 -7 -65
-10 -14 -2 -45 -7 -70 -10 -25 -3 -61 -8 -80 -10 -137 -19 -309 -28 -525 -28
-185 0 -421 9 -474 17 -14 3 -57 7 -94 11 -37 3 -76 8 -85 9 -16 3 -74 12
-152 22 -19 3 -60 10 -90 15 -30 6 -68 13 -85 15 -16 3 -46 9 -65 14 -19 5
-48 12 -65 14 -16 3 -79 19 -140 36 -60 17 -121 33 -135 36 -14 2 -32 7 -40
11 -8 3 -19 7 -25 9 -175 48 -533 203 -730 314 -38 22 -80 44 -93 50 -12 5
-35 18 -50 29 -15 10 -63 41 -107 69 -109 70 -101 64 -256 180 -77 57 -139
108 -139 113 0 5 -5 9 -10 9 -6 0 -22 10 -35 22 -13 13 -50 46 -81 73 -154
134 -480 477 -478 502 1 7 -2 11 -6 8 -10 -6 -240 281 -240 300 0 3 -25 40
-55 84 -30 43 -51 81 -48 85 4 3 1 6 -6 6 -6 0 -16 10 -21 23 -6 12 -23 42
-39 67 -16 25 -30 51 -30 58 -1 6 -6 12 -12 12 -6 0 -8 7 -5 17 4 10 4 14 0
10 -7 -7 -56 79 -57 101 0 6 -4 12 -9 12 -4 0 -8 7 -8 15 0 8 -4 15 -8 15 -8
0 -33 61 -29 71 1 3 -6 13 -16 23 -9 10 -15 21 -12 26 3 5 1 10 -4 12 -5 1
-11 12 -13 23 -1 11 -5 22 -8 25 -15 14 -41 90 -35 101 5 7 4 10 -2 6 -14 -9
-37 48 -27 64 5 8 3 9 -6 4 -10 -6 -12 -4 -7 8 3 9 2 17 -3 19 -11 4 -82 217
-75 228 3 4 1 10 -4 12 -6 1 -12 14 -14 28 -2 14 -7 32 -11 41 -4 8 -8 29 -9
45 -1 16 -5 31 -9 35 -4 3 -9 18 -12 35 -2 16 -8 40 -13 54 -6 14 -7 26 -3 28
4 2 2 15 -5 30 -8 15 -16 50 -18 77 -3 28 -6 50 -7 50 -4 0 -10 43 -12 82 -2
24 -6 43 -9 43 -3 0 -7 19 -8 43 -1 23 -4 58 -6 77 -3 19 -8 69 -11 110 -3 41
-8 77 -10 79 -2 2 4 10 14 18 12 9 13 12 2 8 -12 -4 -15 4 -15 37 0 24 4 49 9
57 6 10 6 12 -2 7 -12 -7 -14 9 -14 89 0 42 2 46 14 39 6 -4 4 3 -5 16 -11 16
-13 28 -7 40 5 10 7 20 3 23 -3 4 0 13 7 22 11 13 10 14 -5 9 -15 -6 -16 -4
-7 13 6 11 8 23 4 27 -3 4 0 11 8 16 10 7 11 10 3 10 -7 0 -13 7 -13 16 0 8 5
12 11 8 8 -4 8 -1 1 12 -5 11 -8 28 -5 39 2 11 4 43 5 70 0 28 3 54 6 60 6 9
8 34 11 113 1 32 4 41 14 36 9 -6 9 -5 0 7 -10 12 -10 18 -1 27 7 7 8 12 4 12
-5 0 -2 8 5 17 8 9 9 14 4 11 -7 -4 -9 6 -7 28 2 18 7 32 11 30 3 -2 7 17 8
43 3 42 9 86 13 86 1 0 4 11 7 25 2 14 6 32 8 40 2 8 4 18 4 22 1 4 9 5 19 2
15 -5 15 -5 0 5 -15 10 -15 51 1 51 3 0 6 17 7 37 0 20 6 39 12 41 7 2 10 7 7
12 -10 15 14 62 27 54 10 -6 10 -5 1 7 -12 15 -8 54 8 75 5 6 5 14 1 19 -4 4
4 5 18 2 23 -6 24 -5 6 8 -17 13 -14 41 4 30 5 -3 12 -1 15 5 4 6 3 10 -2 9
-22 -4 -24 3 -9 26 9 14 14 29 11 34 -2 5 2 11 9 14 8 3 15 14 14 24 0 31 11
66 24 75 7 4 9 8 4 8 -6 0 -1 7 10 16 10 8 13 13 6 9 -6 -3 -12 -1 -12 4 0 6
4 11 10 11 5 0 9 3 8 8 -6 16 25 71 36 65 6 -4 4 2 -4 12 -14 17 -13 18 2 12
12 -4 15 -2 12 7 -3 8 1 20 9 27 8 7 12 21 9 31 -2 10 1 18 7 18 6 0 11 7 11
16 0 8 4 12 10 9 5 -3 7 0 4 8 -3 8 1 21 9 28 7 8 12 20 9 27 -2 6 7 16 20 21
12 6 17 10 9 10 -11 1 -11 4 -1 16 7 8 17 12 24 8 6 -4 5 1 -3 11 -13 15 -13
19 -1 26 8 5 17 7 21 4 4 -2 5 5 2 16 -3 12 0 20 6 20 7 0 10 4 7 9 -3 4 3 19
14 31 11 12 17 26 15 30 -3 4 2 11 11 14 8 3 13 9 11 13 -5 8 18 34 29 32 3 0
9 3 12 7 4 4 1 4 -6 0 -6 -4 -12 -2 -12 3 0 6 5 11 11 11 5 0 7 5 4 10 -3 6
-1 10 5 10 6 0 9 4 6 8 -3 5 7 22 22 39 15 17 28 37 30 44 4 18 42 50 51 44 4
-2 8 2 8 10 0 12 -3 12 -15 2 -13 -10 -14 -9 -3 10 6 13 17 20 25 17 10 -4 14
1 12 13 -2 10 6 22 18 28 12 6 21 18 21 27 0 9 10 28 22 41 12 14 19 27 17 30
-3 2 9 16 26 31 17 14 29 26 25 26 -4 0 1 7 9 16 9 8 20 13 25 10 5 -3 7 2 4
12 -2 10 7 27 23 42 15 14 24 20 20 13 -3 -6 -2 -14 3 -17 5 -4 8 5 6 19 -1
18 6 33 26 50 16 13 29 27 29 32 0 4 13 17 29 28 17 11 28 21 26 23 -8 8 34
44 44 38 5 -4 13 -1 17 5 4 8 3 9 -4 5 -7 -4 -12 -3 -12 2 0 15 28 23 33 9 2
-6 6 -3 10 7 4 10 3 15 -3 11 -27 -17 -4 15 49 67 57 55 81 72 65 46 -4 -7 -3
-8 4 -4 6 4 8 14 5 24 -3 9 -3 14 1 10 4 -4 21 9 37 27 20 23 37 32 50 30 16
-3 18 -1 10 8 -7 9 -5 16 10 25 11 7 24 10 29 7 6 -3 7 2 4 12 -5 16 -3 15 12
-2 16 -19 16 -19 10 -1 -5 14 1 26 20 43 29 25 50 31 38 11 -5 -9 -2 -9 9 1
19 15 23 26 6 15 -7 -4 -10 -1 -7 7 5 14 29 20 38 8 3 -3 14 3 25 14 20 20 20
20 -2 8 -34 -18 -27 0 12 32 21 17 43 26 57 24 13 -2 17 -2 11 0 -18 6 -16 23
2 23 8 0 15 5 15 12 0 6 3 9 6 5 3 -3 20 8 37 24 31 30 65 35 59 8 -2 -8 0
-10 4 -6 11 11 14 38 3 31 -5 -3 -9 0 -9 7 0 6 8 9 19 6 13 -3 18 0 15 8 -3 7
0 16 7 21 8 5 10 3 4 -7 -5 -8 5 -1 20 14 23 23 31 26 40 15 8 -10 14 -9 32 9
12 13 18 23 13 23 -5 0 -16 -7 -24 -16 -9 -8 -16 -11 -16 -5 0 16 40 33 62 28
16 -5 17 -3 6 11 -10 12 -10 14 0 8 6 -4 12 -2 12 3 0 6 5 11 10 11 6 0 20 9
32 20 17 16 24 17 37 7 12 -10 14 -9 8 6 -7 17 4 21 48 18 17 -2 18 0 5 9 -13
9 -13 11 0 20 8 5 21 8 28 5 6 -3 20 -8 30 -11 16 -5 16 -5 -1 6 -9 6 -15 16
-11 22 4 6 10 5 15 -3 7 -11 9 -10 9 5 0 15 3 16 15 6 8 -7 12 -17 8 -23 -3
-6 -1 -7 6 -3 9 6 9 11 0 22 -6 8 -10 16 -8 17 25 16 59 28 67 23 6 -3 13 -2
17 3 3 6 12 8 20 4 8 -3 15 0 15 7 0 6 -4 8 -10 5 -5 -3 -10 -3 -10 2 0 4 20
18 45 30 25 12 44 19 41 15 -2 -4 4 -8 14 -8 11 0 17 2 15 4 -2 3 0 13 6 24 6
11 13 17 16 14 4 -3 12 -1 19 5 9 8 15 5 23 -9 6 -11 7 -23 3 -27 -4 -5 -1 -5
6 -1 9 5 9 12 1 27 -14 27 -3 38 15 14 13 -18 14 -18 12 4 -1 24 14 33 57 32
9 0 15 4 12 10 -4 5 1 9 10 9 11 0 15 -5 12 -15 -4 -8 -2 -17 2 -20 5 -3 8 8
7 23 -1 17 3 29 11 29 6 0 10 -4 8 -8 -4 -6 18 -5 35 1 3 1 9 2 13 1 5 -1 6 3
2 9 -5 8 -11 7 -21 -1 -8 -7 -14 -7 -14 -1 0 18 27 21 51 4 l24 -16 -20 24
c-11 13 -14 20 -6 15 7 -4 16 -3 20 3 4 7 17 13 29 15 12 2 25 6 28 10 4 4 13
2 21 -5 11 -9 12 -7 7 7 -5 12 -4 16 4 11 6 -3 13 -2 17 4 3 5 12 10 18 10 8
0 8 -3 -2 -9 -9 -6 -4 -8 15 -8 16 0 23 2 17 4 -7 3 -13 9 -13 15 0 6 7 8 15
4 8 -3 15 -1 15 4 0 6 8 10 18 10 9 0 30 7 45 15 26 13 31 13 50 0 12 -8 26
-15 32 -15 5 1 -1 7 -14 14 -23 13 -23 14 -5 23 10 5 26 9 34 8 8 -1 24 6 34
14 11 9 16 10 12 4 -10 -18 -17 -57 -8 -49 4 4 7 11 8 14 2 20 18 42 30 42 7
0 18 -8 24 -17 11 -17 11 -17 6 0 -4 13 2 20 21 28 14 5 28 7 31 4 3 -2 -6 -9
-19 -14 -16 -7 -19 -10 -7 -10 9 -1 20 4 23 9 3 6 16 10 28 11 21 0 21 1 2 9
-18 8 -18 9 5 10 14 2 30 1 35 0 37 -8 53 -6 48 6 -3 8 -1 14 3 15 35 4 63 8
89 14 l29 6 -19 -23 -20 -23 24 20 c13 11 25 19 28 17 3 -2 8 0 11 4 4 4 1 4
-5 0 -7 -4 -13 -2 -13 3 0 6 9 11 21 11 11 0 17 -4 14 -10 -3 -5 -1 -10 4 -10
6 0 11 8 11 18 1 15 2 15 17 -3 14 -18 15 -18 9 -1 -5 14 -3 17 11 11 32 -12
54 -14 48 -4 -4 5 -10 7 -15 4 -5 -3 -11 -2 -14 3 -3 5 9 8 27 7 18 -1 38 3
45 8 8 6 12 5 12 -2 0 -6 5 -11 11 -11 5 0 7 4 4 10 -4 6 2 7 18 1 15 -6 29
-6 38 1 11 8 10 9 -4 4 -10 -3 -15 -2 -12 4 3 5 16 8 28 6 12 -2 28 1 35 6 8
7 12 7 12 0 0 -6 -6 -13 -12 -15 -7 -3 2 -4 20 -3 18 2 36 7 40 11 4 4 -3 4
-15 1 -13 -4 -23 -3 -23 1 0 5 17 10 38 11 20 0 74 3 120 6 80 4 88 2 83 -28
-1 -5 5 -4 13 4 19 15 21 24 4 14 -10 -5 -10 -4 -2 6 17 18 96 21 90 3 -3 -8
-1 -11 4 -8 6 3 10 1 10 -4 0 -6 5 -11 11 -11 8 0 8 4 0 14 -9 11 -8 15 4 20
19 7 62 -9 68 -26 2 -7 3 -4 1 8 -2 13 2 21 11 21 8 0 12 -4 9 -9 -7 -11 7
-10 25 1 18 12 43 2 34 -13 -5 -8 -3 -8 8 0 19 14 69 17 69 3 0 -5 -6 -7 -12
-3 -7 4 -9 3 -5 -2 10 -11 58 -14 51 -2 -3 4 -10 5 -16 2 -6 -4 -8 -3 -5 3 4
6 26 10 49 9 33 -1 44 -6 46 -20 2 -11 0 -16 -6 -12 -6 3 -13 3 -16 -2 -3 -5
2 -9 11 -9 9 0 18 9 21 19 4 19 32 26 32 8 0 -5 5 -10 11 -10 5 0 8 4 5 8 -3
5 8 8 24 8 16 0 27 -3 25 -7 -3 -4 2 -9 10 -13 8 -3 14 -2 12 2 -2 7 8 13 21
11 7 -1 43 -5 75 -7 11 -1 15 -7 11 -14 -5 -7 -3 -8 7 -2 22 14 49 15 49 2 0
-6 3 -8 7 -5 3 4 13 1 21 -6 10 -7 13 -8 9 -1 -4 8 4 11 24 9 17 -2 35 -9 39
-16 12 -19 50 -19 42 -1 -4 11 -2 13 8 7 15 -9 48 -16 88 -18 17 -1 21 -5 16
-21 -6 -19 -6 -19 10 -3 12 12 25 15 44 10 15 -3 32 -6 39 -6 7 0 13 -4 13 -9
0 -5 9 -6 20 -3 12 4 20 2 20 -5 0 -6 5 -8 10 -5 6 3 10 1 10 -4 0 -6 5 -11
11 -11 5 0 8 4 5 9 -3 4 13 3 34 -3 33 -8 39 -14 34 -29 -4 -13 -2 -17 5 -13
6 4 11 14 11 22 0 8 5 14 11 14 6 0 9 -8 7 -18 -4 -12 1 -18 13 -18 14 0 15 3
7 13 -9 11 -6 12 14 4 14 -5 29 -7 32 -4 3 4 13 -2 22 -13 8 -10 13 -13 9 -6
-3 6 -4 12 0 12 3 0 10 -10 15 -22 7 -18 9 -19 9 -5 1 9 6 17 12 17 6 0 9 -9
6 -19 -3 -14 -1 -18 9 -14 8 3 12 8 9 12 -2 4 9 5 26 3 16 -2 29 -8 29 -13 0
-4 10 -13 23 -19 21 -11 21 -10 3 4 -11 9 -15 16 -9 16 17 0 44 -30 38 -41 -4
-5 -1 -9 5 -9 7 0 9 9 6 23 -3 12 -3 16 0 9 3 -6 9 -10 14 -7 5 3 19 1 32 -4
47 -19 63 -24 71 -23 4 1 7 -3 7 -9 0 -6 9 -9 19 -6 11 3 29 -2 40 -10 12 -8
21 -11 21 -7 0 3 11 -1 25 -10 13 -9 32 -16 41 -16 11 0 14 -5 10 -16 -5 -14
-4 -15 9 -4 12 10 18 10 30 0 8 -7 15 -9 15 -5 0 4 6 2 13 -4 8 -6 17 -8 20
-5 3 4 4 -6 1 -20 -4 -23 -3 -25 10 -14 7 7 11 18 8 23 -3 6 2 3 13 -5 10 -8
21 -15 24 -15 3 0 6 -5 5 -11 -1 -6 4 -11 11 -11 7 0 11 7 8 16 -2 9 3 5 11
-9 10 -16 15 -19 16 -10 0 9 3 11 8 5 4 -5 16 -12 27 -13 11 -2 22 -8 23 -13
2 -5 8 -7 13 -3 5 3 12 -2 15 -10 3 -9 10 -14 14 -11 12 8 71 -20 63 -30 -5
-4 -1 -6 7 -3 8 3 47 -11 85 -31 39 -19 73 -34 77 -33 4 1 5 -5 2 -13 -5 -11
-1 -14 12 -9 15 5 16 4 5 -4 -17 -12 -53 6 -44 22 4 5 1 6 -7 1 -10 -6 -9 -11
5 -22 18 -13 18 -13 -1 -28 -10 -8 -25 -15 -31 -15 -16 0 -17 -16 -1 -26 7 -4
8 -3 4 4 -4 7 -1 12 8 12 9 0 19 0 24 0 4 0 7 -4 7 -9 0 -5 3 -12 7 -16 3 -4
5 1 4 12 -5 27 4 36 22 21 12 -10 14 -10 8 0 -4 7 -2 12 8 12 8 0 17 -4 21
-10 3 -5 12 -7 20 -3 8 3 15 1 15 -5 0 -12 -18 -11 -39 2 -9 6 -12 5 -7 -2 3
-5 0 -13 -6 -15 -10 -4 -10 -6 0 -6 8 -1 10 -6 6 -13 -4 -7 1 -5 11 4 17 15
21 16 48 2 16 -9 26 -11 23 -6 -4 6 -2 13 3 16 5 4 12 -3 16 -14 7 -22 20 -26
31 -8 4 6 3 8 -4 4 -6 -3 -13 -2 -16 3 -11 16 11 22 24 6 7 -8 16 -13 20 -10
4 3 13 -2 20 -10 7 -8 16 -12 21 -9 5 3 9 0 9 -5 0 -6 7 -11 15 -11 8 0 15 -5
15 -11 0 -5 -5 -7 -12 -3 -7 5 -8 3 -3 -5 5 -9 11 -9 17 -3 13 13 78 -26 78
-47 0 -11 3 -11 15 -1 14 12 15 10 11 -13 -3 -15 0 -27 6 -27 5 0 8 7 4 15 -3
8 -1 15 4 15 6 0 10 -5 10 -11 0 -5 5 -7 10 -4 6 3 10 1 10 -4 0 -6 -5 -11
-12 -11 -6 0 -8 -3 -5 -6 4 -4 13 -1 22 6 11 9 15 9 15 1 0 -7 4 -10 9 -7 4 3
7 -5 6 -18 -2 -12 2 -23 9 -23 6 0 20 -4 31 -7 11 -4 8 0 -7 9 -38 21 -36 29
2 10 17 -9 28 -20 25 -25 -5 -9 6 -14 25 -12 3 0 7 -10 8 -24 1 -13 -3 -24 -8
-24 -5 0 4 -14 22 -30 29 -28 30 -31 14 -43 -16 -12 -16 -13 3 -13 11 0 17 4
15 8 -3 4 0 8 7 8 8 0 7 5 -2 16 -8 9 -14 24 -14 33 0 9 -8 15 -19 14 -14 -1
-15 2 -6 10 9 9 16 6 31 -12 10 -12 17 -27 14 -31 -3 -5 -1 -11 5 -15 6 -4 8
-11 5 -16 -4 -5 -1 -9 4 -9 6 0 11 -5 11 -11 0 -5 -5 -7 -12 -3 -6 4 -8 3 -4
-4 3 -5 0 -13 -6 -16 -7 -3 -2 -3 11 0 21 5 23 3 18 -15 -3 -12 -1 -19 4 -15
5 3 9 -2 9 -10 0 -8 4 -17 8 -20 4 -2 8 8 7 24 0 15 -2 27 -5 25 -3 -2 -5 7
-5 20 0 13 3 21 8 18 4 -2 7 1 7 6 0 6 -4 11 -8 11 -4 0 -8 12 -9 28 -1 15 1
21 4 14 2 -6 8 -10 13 -7 4 3 7 -3 6 -12 0 -9 5 -18 12 -20 6 -3 12 0 12 7 0
6 -5 8 -12 4 -7 -5 -8 -3 -3 6 6 10 11 9 22 -5 7 -11 13 -22 13 -27 0 -4 5 -8
11 -8 5 0 7 5 3 12 -4 7 7 2 24 -11 33 -23 43 -45 17 -35 -8 4 -12 11 -8 17 4
6 1 7 -7 2 -10 -6 -9 -11 5 -22 12 -8 22 -10 29 -3 6 6 16 2 28 -12 10 -12 18
-17 18 -13 0 4 9 -2 20 -15 11 -13 20 -19 20 -14 1 5 9 -1 19 -13 10 -12 22
-19 26 -15 4 4 4 -4 0 -18 -7 -25 -7 -25 10 -5 9 11 14 15 11 9 -3 -6 10 -20
29 -30 19 -10 35 -23 35 -28 0 -6 -5 -5 -12 2 -7 7 -17 12 -23 12 -5 0 -2 -5
8 -11 10 -6 14 -15 10 -22 -4 -8 -1 -7 9 1 13 11 20 11 36 1 11 -7 18 -19 15
-26 -4 -9 0 -11 13 -6 12 4 15 3 10 -5 -4 -7 -1 -12 6 -12 8 0 34 -18 58 -40
25 -22 49 -40 53 -40 5 0 5 -4 2 -10 -3 -5 1 -10 10 -10 13 0 14 -4 4 -22 -9
-19 -9 -21 2 -10 7 6 19 12 27 12 12 0 12 -3 2 -15 -7 -9 -10 -18 -6 -22 3 -3
6 -1 6 5 0 14 26 16 35 2 3 -5 1 -18 -4 -28 -7 -14 -6 -19 4 -19 7 0 11 6 8
14 -4 9 0 11 11 7 9 -3 16 -10 16 -14 0 -5 9 -12 21 -15 14 -5 18 -12 14 -23
-3 -9 -3 -13 1 -9 10 9 64 -31 64 -49 0 -8 4 -13 8 -11 10 3 72 -49 66 -56 -3
-2 4 -7 15 -10 13 -3 28 4 42 19 18 20 25 22 38 11 12 -10 13 -9 7 1 -11 19
34 67 47 50 6 -9 7 -5 4 10 -3 13 -3 22 -1 19 3 -3 21 11 40 31 31 32 40 34
34 7 -1 -5 2 -6 6 -2 5 4 9 18 9 30 0 17 5 22 25 20 14 -1 19 1 13 3 -18 8
-16 27 1 21 8 -3 20 2 28 11 9 11 10 14 1 8 -7 -4 -13 -4 -13 1 1 13 49 45 59
39 5 -4 7 4 3 16 -5 21 -4 22 11 9 15 -12 17 -12 12 2 -4 8 -1 18 6 23 8 5 10
3 4 -5 -6 -10 -3 -11 14 -2 11 7 22 16 22 21 1 6 2 15 3 22 0 6 7 13 15 16 9
3 11 0 6 -8 -6 -9 -4 -11 4 -6 7 5 10 14 7 21 -5 14 54 74 93 95 12 6 21 18
22 28 0 10 3 12 6 5 2 -7 9 -13 14 -13 6 0 7 5 4 10 -7 11 96 120 117 124 18
3 55 25 43 26 -6 0 -16 -5 -23 -12 -9 -9 -12 -9 -12 0 0 7 8 16 17 19 21 8 53
40 47 47 -2 3 -1 4 2 1 4 -2 24 15 45 38 33 35 40 40 50 27 9 -13 10 -12 5 3
-6 20 3 49 14 42 4 -3 10 4 13 15 3 11 2 18 -2 17 -6 -2 -93 71 -191 160 -19
18 -46 42 -60 54 -14 11 -36 30 -50 42 -14 12 -61 51 -105 87 -44 36 -82 67
-85 70 -3 3 -25 21 -50 40 -25 19 -47 37 -50 40 -3 3 -32 25 -65 50 -33 25
-65 50 -72 55 -6 6 -36 27 -65 48 -29 21 -83 60 -120 88 -37 27 -71 49 -77 49
-5 0 -11 3 -13 8 -5 11 -216 152 -228 152 -5 0 -11 3 -12 8 -5 26 -9 63 -11
104 -1 27 -5 48 -8 48 -3 0 -6 12 -6 28 0 15 -3 44 -7 65 -5 29 -3 36 6 31 7
-4 5 1 -4 12 -13 14 -14 23 -6 38 8 14 7 17 -1 12 -7 -5 -11 5 -12 31 -1 21
-1 41 0 46 2 12 -3 10 -101 -46 -52 -29 -101 -57 -109 -61 -8 -4 -40 -22 -72
-39 l-59 -33 -191 96 c-106 53 -221 109 -257 125 -36 15 -87 38 -115 51 -69
30 -294 117 -385 147 -117 39 -308 98 -333 102 -12 3 -44 11 -72 19 -43 13
-77 21 -120 31 -176 40 -341 73 -378 75 -5 0 -5 6 -1 13 5 9 4 9 -5 1 -9 -8
-24 -9 -44 -3 -18 4 -54 11 -82 14 -27 4 -59 8 -70 10 -50 7 -114 16 -160 20
-27 2 -72 7 -100 10 -54 6 -121 11 -280 21 -90 5 -553 12 -558 8z m883 -1208
c0 -3 -4 -8 -10 -11 -5 -3 -10 -1 -10 4 0 6 5 11 10 11 6 0 10 -2 10 -4z
m-2620 -420 c0 -3 -4 -8 -10 -11 -5 -3 -10 -1 -10 4 0 6 5 11 10 11 6 0 10 -2
10 -4z m4240 -140 c0 -2 -8 -10 -17 -17 -16 -13 -17 -12 -4 4 13 16 21 21 21
13z m1784 -671 c-4 -8 -8 -15 -10 -15 -2 0 -4 7 -4 15 0 8 4 15 10 15 5 0 7
-7 4 -15z m-7524 -439 c0 -3 -4 -8 -10 -11 -5 -3 -10 -1 -10 4 0 6 5 11 10 11
6 0 10 -2 10 -4z m-35 -6335 c-6 -5 -25 10 -25 20 0 5 6 4 14 -3 8 -7 12 -15
11 -17z m755 -501 c0 -5 -2 -10 -4 -10 -3 0 -8 5 -11 10 -3 6 -1 10 4 10 6 0
11 -4 11 -10z m4460 -460 c-8 -5 -19 -10 -25 -10 -5 0 -3 5 5 10 8 5 20 10 25
10 6 0 3 -5 -5 -10z m-690 -142 c0 -4 -4 -8 -9 -8 -6 0 -12 4 -15 8 -3 5 1 9
9 9 8 0 15 -4 15 -9z m-1665 -18 c3 -5 1 -10 -4 -10 -6 0 -11 5 -11 10 0 6 2
10 4 10 3 0 8 -4 11 -10z"/>
<path d="M5325 9373 c12 -14 17 -15 27 -4 11 11 10 13 -3 8 -9 -3 -22 -1 -28
4 -6 5 -4 1 4 -8z"/>
<path d="M5410 9386 c0 -2 6 -9 14 -15 11 -9 16 -9 22 0 4 8 3 9 -4 5 -7 -4
-12 -2 -12 3 0 6 -4 11 -10 11 -5 0 -10 -2 -10 -4z"/>
<path d="M5525 9379 c-4 -6 -5 -12 -2 -15 2 -3 7 2 10 11 7 17 1 20 -8 4z"/>
<path d="M5136 9367 c3 -10 9 -15 12 -12 3 3 0 11 -7 18 -10 9 -11 8 -5 -6z"/>
<path d="M5230 9359 c13 -23 22 -25 13 -2 -5 12 -3 14 8 8 8 -5 11 -4 6 0 -4
5 -14 10 -22 11 -12 2 -12 -2 -5 -17z"/>
<path d="M5575 9370 c-3 -5 -1 -10 4 -10 6 0 11 5 11 10 0 6 -2 10 -4 10 -3 0
-8 -4 -11 -10z"/>
<path d="M5685 9369 c-4 -6 -4 -13 -1 -16 3 -4 6 -1 6 6 0 7 5 9 12 5 7 -4 8
-3 4 4 -9 15 -13 15 -21 1z"/>
<path d="M5104 9359 c-4 -7 -3 -9 4 -5 5 3 13 0 15 -6 4 -9 6 -10 6 -1 1 17
-16 25 -25 12z"/>
<path d="M5815 9359 c-4 -6 -5 -12 -2 -15 2 -3 7 2 10 11 7 17 1 20 -8 4z"/>
<path d="M5876 9357 c3 -10 9 -15 12 -12 3 3 0 11 -7 18 -10 9 -11 8 -5 -6z"/>
<path d="M5926 9352 c-2 -4 4 -9 15 -9 11 -1 17 2 14 8 -7 11 -22 12 -29 1z"/>
<path d="M6011 9334 c0 -11 3 -14 6 -6 3 7 2 16 -1 19 -3 4 -6 -2 -5 -13z"/>
<path d="M4851 9324 c0 -11 3 -14 6 -6 3 7 2 16 -1 19 -3 4 -6 -2 -5 -13z"/>
<path d="M4915 9331 c-3 -5 -2 -12 3 -15 5 -3 9 1 9 9 0 17 -3 19 -12 6z"/>
<path d="M6072 9321 c-11 -7 -11 -9 0 -14 9 -3 15 1 15 9 0 8 -1 14 -1 14 -1
0 -7 -4 -14 -9z"/>
<path d="M6214 9306 c1 -8 5 -18 8 -22 4 -3 5 1 4 10 -1 8 -5 18 -8 22 -4 3
-5 -1 -4 -10z"/>
<path d="M4640 9300 c-9 -6 -10 -10 -3 -10 6 0 15 5 18 10 8 12 4 12 -15 0z"/>
<path d="M6186 9293 c-6 -14 -5 -15 5 -6 7 7 10 15 7 18 -3 3 -9 -2 -12 -12z"/>
<path d="M4593 9283 c0 -9 4 -10 14 -2 7 6 13 12 13 14 0 1 -6 2 -13 2 -8 0
-14 -6 -14 -14z"/>
<path d="M4720 9296 c0 -2 7 -7 16 -10 8 -3 12 -2 9 4 -6 10 -25 14 -25 6z"/>
<path d="M6315 9290 c3 -5 8 -10 11 -10 2 0 4 5 4 10 0 6 -5 10 -11 10 -5 0
-7 -4 -4 -10z"/>
<path d="M6348 9273 c6 -2 18 -2 25 0 6 3 1 5 -13 5 -14 0 -19 -2 -12 -5z"/>
<path d="M6410 9275 c0 -5 5 -17 10 -25 5 -8 10 -10 10 -5 0 6 -5 17 -10 25
-5 8 -10 11 -10 5z"/>
<path d="M4518 9253 c7 -3 16 -2 19 1 4 3 -2 6 -13 5 -11 0 -14 -3 -6 -6z"/>
<path d="M6480 9250 c-12 -7 -10 -9 7 -7 12 0 19 5 17 9 -6 10 -6 10 -24 -2z"/>
<path d="M6630 9221 c0 -6 4 -13 10 -16 6 -3 7 1 4 9 -7 18 -14 21 -14 7z"/>
<path d="M4280 9209 c0 -4 6 -9 13 -12 8 -3 14 0 14 7 0 7 -6 13 -14 13 -7 0
-13 -4 -13 -8z"/>
<path d="M6610 9211 c0 -6 4 -13 10 -16 6 -3 7 1 4 9 -7 18 -14 21 -14 7z"/>
<path d="M4214 9189 c-3 -6 -1 -16 5 -22 9 -9 10 -7 5 7 -6 15 -4 17 6 11 9
-5 11 -4 6 3 -9 15 -13 15 -22 1z"/>
<path d="M6754 9175 c3 -23 12 -26 13 -5 1 11 -2 20 -7 20 -4 0 -7 -7 -6 -15z"/>
<path d="M4177 9165 c-4 -8 -3 -16 1 -19 4 -3 9 4 9 15 2 23 -3 25 -10 4z"/>
<path d="M4146 9153 c-6 -14 -5 -15 5 -6 7 7 10 15 7 18 -3 3 -9 -2 -12 -12z"/>
<path d="M6866 9152 c-3 -4 4 -9 15 -9 23 -2 25 3 4 10 -8 4 -16 3 -19 -1z"/>
<path d="M6916 9128 c3 -5 10 -6 15 -3 13 9 11 12 -6 12 -8 0 -12 -4 -9 -9z"/>
<path d="M4070 9119 c0 -5 5 -7 10 -4 6 3 10 8 10 11 0 2 -4 4 -10 4 -5 0 -10
-5 -10 -11z"/>
<path d="M6940 9116 c0 -2 7 -7 16 -10 8 -3 12 -2 9 4 -6 10 -25 14 -25 6z"/>
<path d="M6990 9110 c-13 -8 -12 -10 3 -10 9 0 17 5 17 10 0 12 -1 12 -20 0z"/>
<path d="M7016 9093 c-6 -14 -5 -15 5 -6 7 7 10 15 7 18 -3 3 -9 -2 -12 -12z"/>
<path d="M4026 9088 c3 -5 10 -6 15 -3 13 9 11 12 -6 12 -8 0 -12 -4 -9 -9z"/>
<path d="M7050 9096 c0 -3 9 -10 20 -16 11 -6 20 -8 20 -6 0 3 -9 10 -20 16
-11 6 -20 8 -20 6z"/>
<path d="M7087 9049 c7 -7 15 -10 18 -7 3 3 -2 9 -12 12 -14 6 -15 5 -6 -5z"/>
<path d="M7150 9055 c0 -5 5 -17 10 -25 5 -8 10 -10 10 -5 0 6 -5 17 -10 25
-5 8 -10 11 -10 5z"/>
<path d="M7186 9037 c3 -10 9 -15 12 -12 3 3 0 11 -7 18 -10 9 -11 8 -5 -6z"/>
<path d="M7244 9004 c-18 -14 -18 -15 4 -4 12 6 22 13 22 15 0 8 -5 6 -26 -11z"/>
<path d="M3686 8977 c3 -10 9 -15 12 -12 3 3 0 11 -7 18 -10 9 -11 8 -5 -6z"/>
<path d="M7334 8967 c-4 -7 -4 -9 1 -5 4 4 14 3 22 -3 8 -7 13 -8 13 -1 0 15
-28 23 -36 9z"/>
<path d="M3595 8930 c-16 -7 -14 -8 12 -7 17 1 29 5 26 10 -5 9 -12 8 -38 -3z"/>
<path d="M7450 8920 c0 -5 5 -10 11 -10 5 0 7 5 4 10 -3 6 -8 10 -11 10 -2 0
-4 -4 -4 -10z"/>
<path d="M7480 8896 c0 -2 8 -10 18 -17 15 -13 16 -12 3 4 -13 16 -21 21 -21
13z"/>
<path d="M7530 8882 c6 -13 14 -21 18 -18 3 4 -2 14 -12 24 -18 16 -18 16 -6
-6z"/>
<path d="M7587 8855 c3 -8 9 -12 14 -9 12 7 11 11 -5 17 -10 4 -13 1 -9 -8z"/>
<path d="M3376 8817 c3 -10 9 -15 12 -12 3 3 0 11 -7 18 -10 9 -11 8 -5 -6z"/>
<path d="M3321 8767 c-13 -21 -12 -21 5 -5 10 10 16 20 13 22 -3 3 -11 -5 -18
-17z"/>
<path d="M3271 8767 c-8 -10 -7 -14 2 -14 8 0 14 6 14 14 0 7 -1 13 -2 13 -2
0 -8 -6 -14 -13z"/>
<path d="M3256 8728 c3 -5 10 -6 15 -3 13 9 11 12 -6 12 -8 0 -12 -4 -9 -9z"/>
<path d="M7725 8730 c3 -5 8 -10 11 -10 2 0 4 5 4 10 0 6 -5 10 -11 10 -5 0
-7 -4 -4 -10z"/>
<path d="M7842 8721 c-11 -6 -10 -10 4 -15 20 -8 32 0 18 14 -5 5 -15 5 -22 1z"/>
<path d="M7940 8670 c0 -5 5 -10 11 -10 5 0 7 5 4 10 -3 6 -8 10 -11 10 -2 0
-4 -4 -4 -10z"/>
<path d="M3100 8649 c-7 -11 -9 -23 -6 -27 3 -3 6 0 6 6 0 6 7 18 16 26 8 9
11 16 5 16 -6 0 -15 -9 -21 -21z"/>
<path d="M7959 8643 c-13 -16 -12 -17 4 -4 16 13 21 21 13 21 -2 0 -10 -8 -17
-17z"/>
<path d="M2994 8586 c-10 -8 -17 -16 -14 -19 3 -2 14 4 24 14 23 22 18 25 -10
5z"/>
<path d="M8150 8509 c0 -5 5 -7 10 -4 6 3 10 8 10 11 0 2 -4 4 -10 4 -5 0 -10
-5 -10 -11z"/>
<path d="M2860 8495 c-9 -10 -9 -15 -1 -15 6 0 11 5 11 11 0 5 5 7 12 3 7 -4
8 -3 4 4 -9 15 -11 15 -26 -3z"/>
<path d="M8175 8499 c-4 -5 -4 -13 -1 -16 3 -4 6 0 6 8 0 11 2 11 10 -1 6 -9
10 -10 10 -3 0 17 -17 25 -25 12z"/>
<path d="M9959 8463 c-13 -17 -13 -17 6 -3 11 8 22 16 24 17 2 2 0 3 -6 3 -6
0 -17 -8 -24 -17z"/>
<path d="M8195 8410 c3 -5 8 -10 11 -10 2 0 4 5 4 10 0 6 -5 10 -11 10 -5 0
-7 -4 -4 -10z"/>
<path d="M2655 8330 c-3 -5 -1 -10 4 -10 6 0 11 5 11 10 0 6 -2 10 -4 10 -3 0
-8 -4 -11 -10z"/>
<path d="M9815 8330 c-3 -6 1 -7 9 -4 18 7 21 14 7 14 -6 0 -13 -4 -16 -10z"/>
<path d="M9786 8313 c-6 -14 -5 -15 5 -6 7 7 10 15 7 18 -3 3 -9 -2 -12 -12z"/>
<path d="M8455 8310 c-3 -6 1 -7 9 -4 18 7 21 14 7 14 -6 0 -13 -4 -16 -10z"/>
<path d="M2592 8277 c-24 -25 -28 -42 -12 -52 6 -3 7 1 4 10 -4 10 3 26 16 41
13 13 21 24 18 24 -2 0 -14 -10 -26 -23z"/>
<path d="M8474 8292 c4 -3 14 -7 22 -8 9 -1 13 0 10 4 -4 3 -14 7 -22 8 -9 1
-13 0 -10 -4z"/>
<path d="M2611 8257 c-13 -21 -12 -21 5 -5 10 10 16 20 13 22 -3 3 -11 -5 -18
-17z"/>
<path d="M8540 8270 c0 -5 5 -10 11 -10 5 0 7 5 4 10 -3 6 -8 10 -11 10 -2 0
-4 -4 -4 -10z"/>
<path d="M2500 8195 c-9 -10 -9 -15 -1 -15 6 0 11 6 11 13 0 8 4 7 10 -3 6 -9
10 -10 10 -3 0 19 -17 24 -30 8z"/>
<path d="M9670 8199 c0 -5 5 -7 10 -4 6 3 10 8 10 11 0 2 -4 4 -10 4 -5 0 -10
-5 -10 -11z"/>
<path d="M9631 8176 c-17 -18 -19 -26 -10 -31 7 -5 10 -4 5 3 -3 6 4 18 16 26
12 9 19 18 17 21 -3 3 -16 -6 -28 -19z"/>
<path d="M2475 8161 c-3 -5 -2 -12 3 -15 5 -3 9 1 9 9 0 17 -3 19 -12 6z"/>
<path d="M8678 8153 c7 -3 16 -2 19 1 4 3 -2 6 -13 5 -11 0 -14 -3 -6 -6z"/>
<path d="M2435 8130 c-3 -5 -1 -10 4 -10 6 0 11 5 11 10 0 6 -2 10 -4 10 -3 0
-8 -4 -11 -10z"/>
<path d="M8756 8092 c-3 -5 1 -9 9 -9 8 0 12 4 9 9 -3 4 -7 8 -9 8 -2 0 -6 -4
-9 -8z"/>
<path d="M8814 8039 c-4 -7 -3 -9 4 -5 5 3 13 0 15 -6 4 -9 6 -10 6 -1 1 17
-16 25 -25 12z"/>
<path d="M9475 8010 c-3 -6 1 -7 9 -4 18 7 21 14 7 14 -6 0 -13 -4 -16 -10z"/>
<path d="M2290 7972 c0 -5 7 -9 15 -9 8 0 12 4 9 9 -3 4 -9 8 -15 8 -5 0 -9
-4 -9 -8z"/>
<path d="M2235 7910 c3 -5 8 -10 11 -10 2 0 4 5 4 10 0 6 -5 10 -11 10 -5 0
-7 -4 -4 -10z"/>
<path d="M2185 7860 c-3 -6 1 -7 9 -4 18 7 21 14 7 14 -6 0 -13 -4 -16 -10z"/>
<path d="M9046 7847 c3 -10 9 -15 12 -12 3 3 0 11 -7 18 -10 9 -11 8 -5 -6z"/>
<path d="M9255 7811 c-3 -5 -2 -12 3 -15 5 -3 9 1 9 9 0 17 -3 19 -12 6z"/>
<path d="M2155 7799 c-4 -6 -5 -12 -2 -15 2 -3 7 2 10 11 7 17 1 20 -8 4z"/>
<path d="M9111 7783 c7 -12 15 -20 18 -17 3 2 -3 12 -13 22 -17 16 -18 16 -5
-5z"/>
<path d="M9199 7763 c-13 -15 -12 -15 9 -4 23 12 28 21 13 21 -5 0 -15 -7 -22
-17z"/>
<path d="M2095 7750 c-3 -5 -1 -10 4 -10 6 0 11 5 11 10 0 6 -2 10 -4 10 -3 0
-8 -4 -11 -10z"/>
<path d="M9170 7729 c0 -5 5 -7 10 -4 6 3 10 8 10 11 0 2 -4 4 -10 4 -5 0 -10
-5 -10 -11z"/>
<path d="M1945 7539 c-4 -6 -5 -12 -2 -15 2 -3 7 2 10 11 7 17 1 20 -8 4z"/>
<path d="M1891 7444 c0 -11 3 -14 6 -6 3 7 2 16 -1 19 -3 4 -6 -2 -5 -13z"/>
<path d="M1590 6881 c0 -6 4 -13 10 -16 6 -3 7 1 4 9 -7 18 -14 21 -14 7z"/>
<path d="M7819 4128 c-5 -9 -5 -48 -1 -43 6 6 11 45 5 45 -2 0 -4 -1 -4 -2z"/>
<path d="M8139 4128 c-5 -9 -5 -48 -1 -43 6 6 11 45 5 45 -2 0 -4 -1 -4 -2z"/>
<path d="M8459 4128 c-5 -9 -5 -48 -1 -43 6 6 11 45 5 45 -2 0 -4 -1 -4 -2z"/>
<path d="M8779 4128 c-5 -9 -5 -48 -1 -43 6 6 11 45 5 45 -2 0 -4 -1 -4 -2z"/>
<path d="M9045 4121 c-3 -5 -1 -12 5 -16 5 -3 10 -3 10 1 0 4 10 -1 23 -12 20
-17 20 -16 -2 9 -28 30 -28 31 -36 18z"/>
<path d="M9145 4118 c7 -17 45 -21 45 -5 0 5 -6 7 -14 4 -7 -3 -19 0 -25 6 -9
9 -11 8 -6 -5z"/>
<path d="M6375 4103 c11 -12 18 -14 26 -6 8 8 7 13 -2 18 -8 5 -10 4 -5 -3 9
-15 -6 -16 -22 -2 -7 5 -5 2 3 -7z"/>
<path d="M6470 4110 c0 -5 5 -10 11 -10 5 0 7 5 4 10 -3 6 -8 10 -11 10 -2 0
-4 -4 -4 -10z"/>
<path d="M6568 4109 c6 -9 10 -18 7 -21 -3 -2 2 -5 10 -5 18 0 28 24 13 33 -7
4 -8 3 -4 -4 10 -16 -6 -15 -24 1 -12 10 -12 9 -2 -4z"/>
<path d="M6684 4112 c13 -21 41 -31 57 -20 12 8 11 9 -2 5 -9 -3 -27 2 -40 10
-12 9 -19 11 -15 5z"/>
<path d="M6854 4112 c4 -3 14 -7 22 -8 9 -1 13 0 10 4 -4 3 -14 7 -22 8 -9 1
-13 0 -10 -4z"/>
<path d="M6950 4110 c0 -5 5 -10 11 -10 5 0 7 5 4 10 -3 6 -8 10 -11 10 -2 0
-4 -4 -4 -10z"/>
<path d="M7070 4110 c0 -5 5 -10 11 -10 5 0 7 5 4 10 -3 6 -8 10 -11 10 -2 0
-4 -4 -4 -10z"/>
<path d="M7334 4112 c4 -3 14 -7 22 -8 9 -1 13 0 10 4 -4 3 -14 7 -22 8 -9 1
-13 0 -10 -4z"/>
<path d="M7430 4110 c0 -5 5 -10 11 -10 5 0 7 5 4 10 -3 6 -8 10 -11 10 -2 0
-4 -4 -4 -10z"/>
<path d="M7528 4109 c6 -9 10 -18 7 -21 -3 -2 2 -5 10 -5 18 0 28 24 13 33 -7
4 -8 3 -4 -4 10 -16 -6 -15 -24 1 -12 10 -12 9 -2 -4z"/>
<path d="M9096 4111 c8 -8 43 -8 38 0 -2 4 -13 7 -24 6 -10 -1 -17 -3 -14 -6z"/>
<path d="M6253 4095 c0 -7 6 -12 13 -12 7 0 15 5 17 12 3 6 -3 11 -12 11 -10
0 -18 -5 -18 -11z"/>
<path d="M6451 4094 c0 -11 3 -14 6 -6 3 7 2 16 -1 19 -3 4 -6 -2 -5 -13z"/>
<path d="M6930 4101 c0 -8 -7 -11 -17 -6 -15 5 -16 4 -5 -6 9 -10 15 -10 24
-1 6 6 9 15 5 19 -4 3 -7 1 -7 -6z"/>
<path d="M7050 4101 c0 -6 4 -13 10 -16 6 -3 7 1 4 9 -7 18 -14 21 -14 7z"/>
<path d="M7411 4094 c0 -11 3 -14 6 -6 3 7 2 16 -1 19 -3 4 -6 -2 -5 -13z"/>
<path d="M7205 4090 c-3 -6 1 -7 9 -4 18 7 21 14 7 14 -6 0 -13 -4 -16 -10z"/>
<path d="M7975 4090 c3 -5 8 -10 11 -10 2 0 4 5 4 10 0 6 -5 10 -11 10 -5 0
-7 -4 -4 -10z"/>
<path d="M8295 4090 c3 -5 8 -10 11 -10 2 0 4 5 4 10 0 6 -5 10 -11 10 -5 0
-7 -4 -4 -10z"/>
<path d="M8615 4090 c3 -5 8 -10 11 -10 2 0 4 5 4 10 0 6 -5 10 -11 10 -5 0
-7 -4 -4 -10z"/>
<path d="M8935 4090 c3 -5 8 -10 11 -10 2 0 4 5 4 10 0 6 -5 10 -11 10 -5 0
-7 -4 -4 -10z"/>
<path d="M480 3280 c6 -11 13 -20 16 -20 2 0 0 9 -6 20 -6 11 -13 20 -16 20
-2 0 0 -9 6 -20z"/>
<path d="M10299 3283 c-13 -16 -12 -17 4 -4 16 13 21 21 13 21 -2 0 -10 -8
-17 -17z"/>
<path d="M10116 2832 c-2 -4 -1 -14 4 -22 7 -11 9 -9 7 8 -1 24 -3 26 -11 14z"/>
<path d="M750 2730 c0 -5 5 -10 11 -10 5 0 7 5 4 10 -3 6 -8 10 -11 10 -2 0
-4 -4 -4 -10z"/>
<path d="M10070 2721 c0 -6 4 -13 10 -16 6 -3 7 1 4 9 -7 18 -14 21 -14 7z"/>
<path d="M10035 2661 c-3 -5 -2 -12 3 -15 5 -3 9 1 9 9 0 17 -3 19 -12 6z"/>
<path d="M916 2483 c-6 -14 -5 -15 5 -6 7 7 10 15 7 18 -3 3 -9 -2 -12 -12z"/>
<path d="M950 2431 c0 -6 4 -13 10 -16 6 -3 7 1 4 9 -7 18 -14 21 -14 7z"/>
<path d="M986 2388 c3 -5 10 -6 15 -3 13 9 11 12 -6 12 -8 0 -12 -4 -9 -9z"/>
<path d="M1090 2249 c0 -5 5 -7 10 -4 6 3 10 8 10 11 0 2 -4 4 -10 4 -5 0 -10
-5 -10 -11z"/>
<path d="M1430 1852 c0 -5 7 -9 15 -9 8 0 12 4 9 9 -3 4 -9 8 -15 8 -5 0 -9
-4 -9 -8z"/>
<path d="M9470 1789 c0 -5 5 -7 10 -4 6 3 10 8 10 11 0 2 -4 4 -10 4 -5 0 -10
-5 -10 -11z"/>
<path d="M1514 1759 c-4 -7 -3 -9 4 -5 5 3 13 0 15 -6 4 -9 6 -10 6 -1 1 17
-16 25 -25 12z"/>
<path d="M9421 1741 c-7 -5 -9 -11 -5 -14 5 -3 15 1 22 9 14 16 5 18 -17 5z"/>
<path d="M9396 1704 c-8 -20 -8 -24 2 -24 4 0 8 9 9 20 2 24 -3 26 -11 4z"/>
<path d="M1570 1691 c0 -6 4 -13 10 -16 6 -3 7 1 4 9 -7 18 -14 21 -14 7z"/>
<path d="M9309 1613 c-13 -15 -17 -22 -8 -15 9 6 19 10 22 7 4 -3 5 -2 2 2 -3
3 0 12 6 20 21 25 3 13 -22 -14z"/>
<path d="M1695 1571 c-3 -5 -2 -12 3 -15 5 -3 9 1 9 9 0 17 -3 19 -12 6z"/>
<path d="M1737 1535 c3 -8 9 -12 14 -9 12 7 11 11 -5 17 -10 4 -13 1 -9 -8z"/>
<path d="M1791 1494 c0 -11 3 -14 6 -6 3 7 2 16 -1 19 -3 4 -6 -2 -5 -13z"/>
<path d="M1813 1475 c0 -8 4 -15 9 -15 4 0 8 4 8 9 0 6 -4 12 -8 15 -5 3 -9
-1 -9 -9z"/>
<path d="M1835 1450 c-3 -5 -1 -10 4 -10 6 0 11 5 11 10 0 6 -2 10 -4 10 -3 0
-8 -4 -11 -10z"/>
<path d="M9119 1423 c-13 -16 -12 -17 4 -4 16 13 21 21 13 21 -2 0 -10 -8 -17
-17z"/>
<path d="M9100 1396 c0 -2 7 -6 15 -10 8 -3 15 -1 15 4 0 6 -7 10 -15 10 -8 0
-15 -2 -15 -4z"/>
<path d="M1923 1383 c9 -2 15 -8 13 -12 -3 -4 1 -8 9 -8 11 0 12 4 4 14 -6 7
-19 12 -28 12 -13 -1 -13 -2 2 -6z"/>
<path d="M9010 1309 c0 -5 5 -7 10 -4 6 3 10 8 10 11 0 2 -4 4 -10 4 -5 0 -10
-5 -10 -11z"/>
<path d="M2024 1288 c-4 -7 -3 -8 5 -4 6 4 14 0 17 -8 3 -9 10 -13 15 -10 5 3
3 12 -5 20 -18 17 -23 17 -32 2z"/>
<path d="M8921 1257 c-6 -6 -11 -16 -11 -21 0 -6 5 -3 11 6 5 10 16 15 24 12
8 -4 15 -4 15 -1 0 11 -28 15 -39 4z"/>
<path d="M2100 1236 c0 -2 9 -6 20 -9 11 -3 18 -1 14 4 -5 9 -34 13 -34 5z"/>
<path d="M8845 1170 c-3 -6 1 -7 9 -4 18 7 21 14 7 14 -6 0 -13 -4 -16 -10z"/>
<path d="M2279 1083 c-12 -16 -12 -17 2 -6 9 7 20 9 24 5 5 -4 5 -1 1 6 -9 16
-11 15 -27 -5z"/>
<path d="M2316 1072 c-3 -4 4 -9 15 -9 23 -2 25 3 4 10 -8 4 -16 3 -19 -1z"/>
<path d="M2356 1052 c-3 -4 4 -9 15 -9 23 -2 25 3 4 10 -8 4 -16 3 -19 -1z"/>
<path d="M8644 1028 l-19 -23 23 19 c12 11 22 21 22 23 0 8 -8 2 -26 -19z"/>
<path d="M2397 1019 c7 -7 15 -10 18 -7 3 3 -2 9 -12 12 -14 6 -15 5 -6 -5z"/>
<path d="M8545 970 c-3 -5 -1 -10 4 -10 6 0 11 5 11 10 0 6 -2 10 -4 10 -3 0
-8 -4 -11 -10z"/>
<path d="M2510 946 c0 -3 9 -10 20 -16 11 -6 20 -8 20 -6 0 3 -9 10 -20 16
-11 6 -20 8 -20 6z"/>
<path d="M8530 941 c0 -7 -4 -10 -8 -7 -5 3 -9 -2 -9 -10 0 -13 2 -13 16 0 8
9 12 19 8 22 -4 4 -7 2 -7 -5z"/>
<path d="M8453 904 c-3 -8 -3 -18 1 -21 3 -4 6 1 6 10 0 10 5 14 15 11 8 -4
15 -4 15 -1 0 14 -31 15 -37 1z"/>
<path d="M2596 893 c-6 -14 -5 -15 5 -6 7 7 10 15 7 18 -3 3 -9 -2 -12 -12z"/>
<path d="M8307 809 c7 -7 15 -10 18 -7 3 3 -2 9 -12 12 -14 6 -15 5 -6 -5z"/>
<path d="M2811 774 c0 -11 3 -14 6 -6 3 7 2 16 -1 19 -3 4 -6 -2 -5 -13z"/>
<path d="M8256 768 c3 -5 10 -6 15 -3 13 9 11 12 -6 12 -8 0 -12 -4 -9 -9z"/>
<path d="M2920 716 c0 -2 7 -7 16 -10 8 -3 12 -2 9 4 -6 10 -25 14 -25 6z"/>
<path d="M8100 688 c-10 -21 -10 -21 3 -6 8 10 18 14 22 10 5 -4 5 -1 1 6 -10
17 -14 15 -26 -10z"/>
<path d="M3010 682 c9 -19 30 -23 30 -5 0 4 -3 3 -7 0 -3 -4 -12 1 -20 11 -13
15 -13 15 -3 -6z"/>
<path d="M8010 666 c0 -2 8 -10 18 -17 15 -13 16 -12 3 4 -13 16 -21 21 -21
13z"/>
<path d="M3134 619 c1 -7 12 -13 24 -14 11 -1 19 2 16 7 -4 5 -12 7 -19 4 -8
-3 -16 -1 -19 5 -2 5 -3 4 -2 -2z"/>
<path d="M7915 610 c3 -5 8 -10 11 -10 2 0 4 5 4 10 0 6 -5 10 -11 10 -5 0 -7
-4 -4 -10z"/>
<path d="M7850 576 c0 -2 7 -7 16 -10 8 -3 12 -2 9 4 -6 10 -25 14 -25 6z"/>
<path d="M3254 548 c-3 -4 5 -5 17 -3 30 6 36 14 9 12 -12 -1 -24 -5 -26 -9z"/>
<path d="M7740 535 c-7 -9 -8 -15 -2 -15 5 0 12 7 16 15 3 8 4 15 2 15 -2 0
-9 -7 -16 -15z"/>
<path d="M7655 510 c-4 -6 -4 -14 -1 -17 3 -4 6 0 6 8 1 10 5 8 15 -5 8 -11
15 -15 15 -9 0 18 -27 36 -35 23z"/>
<path d="M3497 485 c-4 -8 -3 -16 1 -19 4 -3 9 4 9 15 2 23 -3 25 -10 4z"/>
<path d="M7575 480 c-3 -5 -1 -10 4 -10 6 0 11 5 11 10 0 6 -2 10 -4 10 -3 0
-8 -4 -11 -10z"/>
<path d="M7616 472 c-3 -5 1 -9 9 -9 8 0 12 4 9 9 -3 4 -7 8 -9 8 -2 0 -6 -4
-9 -8z"/>
<path d="M3540 456 c4 -4 16 -4 26 2 16 9 14 10 -8 9 -15 -1 -23 -6 -18 -11z"/>
<path d="M3593 445 c0 -8 4 -12 9 -9 5 3 6 10 3 15 -9 13 -12 11 -12 -6z"/>
<path d="M7546 451 c-4 -5 3 -7 14 -4 23 6 26 13 6 13 -8 0 -17 -4 -20 -9z"/>
<path d="M3616 433 c-6 -14 -5 -15 5 -6 7 7 10 15 7 18 -3 3 -9 -2 -12 -12z"/>
<path d="M7426 425 c-11 -8 -15 -15 -9 -15 7 0 15 5 18 10 4 6 11 7 17 4 7 -4
8 -2 4 4 -9 14 -7 15 -30 -3z"/>
<path d="M7495 430 c-3 -5 -1 -10 4 -10 6 0 11 5 11 10 0 6 -2 10 -4 10 -3 0
-8 -4 -11 -10z"/>
<path d="M3653 415 c0 -8 4 -12 9 -9 5 3 6 10 3 15 -9 13 -12 11 -12 -6z"/>
<path d="M3775 400 c-3 -5 -1 -10 4 -10 6 0 11 5 11 10 0 6 -2 10 -4 10 -3 0
-8 -4 -11 -10z"/>
<path d="M7355 390 c3 -5 8 -10 11 -10 2 0 4 5 4 10 0 6 -5 10 -11 10 -5 0 -7
-4 -4 -10z"/>
<path d="M7285 379 c-11 -16 -1 -19 13 -3 7 8 8 14 3 14 -5 0 -13 -5 -16 -11z"/>
<path d="M3810 370 c0 -5 5 -10 11 -10 5 0 7 5 4 10 -3 6 -8 10 -11 10 -2 0
-4 -4 -4 -10z"/>
<path d="M3896 367 c5 -14 2 -16 -12 -11 -16 5 -16 4 -4 -5 20 -14 39 4 21 22
-10 10 -11 9 -5 -6z"/>
<path d="M4025 330 c-3 -6 1 -7 9 -4 18 7 21 14 7 14 -6 0 -13 -4 -16 -10z"/>
<path d="M7096 328 c3 -4 11 -5 19 -1 21 7 19 12 -4 10 -11 0 -18 -5 -15 -9z"/>
<path d="M7170 329 c0 -5 5 -7 10 -4 6 3 10 8 10 11 0 2 -4 4 -10 4 -5 0 -10
-5 -10 -11z"/>
<path d="M4036 312 c-2 -4 4 -8 14 -8 10 0 16 4 14 8 -3 4 -9 8 -14 8 -5 0
-11 -4 -14 -8z"/>
<path d="M4155 301 c-3 -5 -2 -12 3 -15 5 -3 9 1 9 9 0 17 -3 19 -12 6z"/>
<path d="M6954 294 c-18 -14 -18 -15 4 -4 12 6 22 13 22 15 0 8 -5 6 -26 -11z"/>
<path d="M4210 290 c0 -5 5 -10 11 -10 5 0 7 5 4 10 -3 6 -8 10 -11 10 -2 0
-4 -4 -4 -10z"/>
<path d="M4256 287 c3 -10 9 -15 12 -12 3 3 0 11 -7 18 -10 9 -11 8 -5 -6z"/>
<path d="M4306 272 c-2 -4 4 -8 14 -8 10 0 16 4 14 8 -3 4 -9 8 -14 8 -5 0
-11 -4 -14 -8z"/>
<path d="M6970 270 c0 -5 5 -10 11 -10 5 0 7 5 4 10 -3 6 -8 10 -11 10 -2 0
-4 -4 -4 -10z"/>
<path d="M6736 252 c-3 -5 1 -9 9 -9 8 0 12 4 9 9 -3 4 -7 8 -9 8 -2 0 -6 -4
-9 -8z"/>
<path d="M4503 235 c0 -6 8 -11 17 -11 9 0 17 5 17 11 0 6 -8 11 -17 11 -9 0
-17 -5 -17 -11z"/>
<path d="M6706 233 c-6 -14 -5 -15 5 -6 7 7 10 15 7 18 -3 3 -9 -2 -12 -12z"/>
<path d="M4386 228 c3 -5 10 -6 15 -3 13 9 11 12 -6 12 -8 0 -12 -4 -9 -9z"/>
<path d="M4420 236 c0 -2 7 -7 16 -10 8 -3 12 -2 9 4 -6 10 -25 14 -25 6z"/>
<path d="M4555 230 c-3 -5 -1 -10 4 -10 6 0 11 5 11 10 0 6 -2 10 -4 10 -3 0
-8 -4 -11 -10z"/>
<path d="M4586 218 c3 -4 11 -5 19 -1 21 7 19 12 -4 10 -11 0 -18 -5 -15 -9z"/>
<path d="M6549 213 c-13 -17 -13 -17 6 -3 11 8 22 16 24 17 2 2 0 3 -6 3 -6 0
-17 -8 -24 -17z"/>
<path d="M4676 212 c-3 -5 1 -9 9 -9 8 0 12 4 9 9 -3 4 -7 8 -9 8 -2 0 -6 -4
-9 -8z"/>
<path d="M6466 208 c3 -4 9 -8 15 -8 5 0 9 4 9 8 0 5 -7 9 -15 9 -8 0 -12 -4
-9 -9z"/>
<path d="M6216 177 c3 -10 9 -15 12 -12 3 3 0 11 -7 18 -10 9 -11 8 -5 -6z"/>
<path d="M6376 177 c3 -10 9 -15 12 -12 3 3 0 11 -7 18 -10 9 -11 8 -5 -6z"/>
<path d="M5197 173 c-4 -3 -7 -11 -7 -17 0 -6 5 -5 12 2 6 6 9 14 7 17 -3 3
-9 2 -12 -2z"/>
<path d="M6074 164 c1 -8 4 -15 7 -16 2 -2 3 -1 2 1 -2 2 2 9 7 16 7 8 5 12
-4 12 -8 0 -13 -6 -12 -13z"/>
<path d="M5230 160 c-9 -6 -10 -10 -3 -10 6 0 15 5 18 10 8 12 4 12 -15 0z"/>
<path d="M5750 155 c-11 -13 -10 -14 4 -9 9 3 16 10 16 15 0 13 -6 11 -20 -6z"/>
<path d="M5783 155 c0 -7 6 -11 14 -8 7 3 13 6 13 8 0 2 -6 5 -13 8 -8 3 -14
-1 -14 -8z"/>
<path d="M5850 160 c0 -5 5 -10 11 -10 5 0 7 5 4 10 -3 6 -8 10 -11 10 -2 0
-4 -4 -4 -10z"/>
<path d="M5906 154 c-5 -13 -4 -14 7 -6 10 9 17 8 27 -1 12 -10 12 -9 1 6 -17
21 -27 22 -35 1z"/>
<path d="M5950 166 c0 -3 9 -10 20 -16 11 -6 20 -8 20 -6 0 3 -9 10 -20 16
-11 6 -20 8 -20 6z"/>
<path d="M5476 128 c3 -5 10 -6 15 -3 13 9 11 12 -6 12 -8 0 -12 -4 -9 -9z"/>
</g>
</svg>
